<?xml version="1.0" encoding="utf-8"?>
<!-- Generator: Adobe Illustrator 22.0.0, SVG Export Plug-In . SVG Version: 6.00 Build 0)  -->
<svg version="1.1" id="Calque_1" xmlns="http://www.w3.org/2000/svg" xmlns:xlink="http://www.w3.org/1999/xlink" x="0px" y="0px"
	 viewBox="0 0 432 432" style="enable-background:new 0 0 432 432;" xml:space="preserve">
<style type="text/css">
	.st0{fill:#066938;}
	.st1{fill:#9F1E29;}
	.st2{fill:#571419;}
	.st3{fill:none;}
	.st4{fill:#C68448;}
	.st5{fill:#8C633A;}
	.st6{fill:#D79A5D;}
	.st7{fill:#A5C0DF;}
	.st8{fill:#36502D;}
	.st9{fill:#C8261D;}
	.st10{fill:#808181;}
	.st11{fill:#519C37;}
	.st12{fill:#FCEE69;}
	.st13{fill:#EC8C37;}
	.st14{fill:#5877B1;}
	.st15{fill:#7B1523;}
	.st16{fill:#4F0D1C;}
	.st17{fill:#BF333D;}
	.st18{fill:#E7373D;}
	.st19{fill:#972021;}
	.st20{fill:#F2F2F2;}
	.st21{fill:#F3D4AA;}
	.st22{fill:#A67D52;}
	.st23{fill:#B59063;}
	.st24{fill:#020203;}
	.st25{fill:#FFFFFF;}
	.st26{fill:#E7E6E6;}
	.st27{fill:#9A9999;}
	.st28{fill:#B4B4B4;}
	.st29{fill:#C9913E;}
	.st30{fill:#D6A14D;}
	.st31{fill:#E2A1BC;}
	.st32{fill:#C1292E;}
	.st33{fill:#82171C;}
	.st34{fill:#CDCCCC;}
	.st35{fill:#D06C5D;}
	.st36{fill:#79986F;}
	.st37{fill:#DAA405;}
	.st38{fill:#EDCBA9;}
	.st39{fill:#405045;}
	.st40{fill:#8B2F2F;}
	.st41{fill:#1D2E1C;}
	.st42{fill:#D4BB78;}
	.st43{fill:#3C1014;}
	.st44{fill:#731633;}
	.st45{fill:#3F0D26;}
	.st46{fill:#E3EBF8;}
	.st47{fill:#D2DFEF;}
	.st48{fill:#B88E5C;}
	.st49{fill:#A81735;}
	.st50{fill:#4AA8A8;}
	.st51{fill:#94B947;}
	.st52{fill:#A8C4D3;}
	.st53{fill:#9F1A18;}
	.st54{fill:#4F6325;}
	.st55{fill:#BAC463;}
	.st56{fill:#8C694B;}
	.st57{fill:#8A9A66;}
	.st58{fill:#DDDDC3;}
	.st59{fill:#3F668A;}
	.st60{fill:#1B1B1B;}
	.st61{fill:#FFF0BA;}
	.st62{fill:#C69C6C;}
	.st63{fill:#603914;}
	.st64{fill:#114923;}
	.st65{fill:#961F27;}
	.st66{fill:#BB870E;}
	.st67{fill:#C51720;}
	.st68{fill:#449494;}
	.st69{fill:#417675;}
	.st70{fill:#ABCFAF;}
	.st71{fill:#66B2B0;}
	.st72{fill:#F9B03D;}
	.st73{fill:#754D24;}
	.st74{fill:#F6F6F6;}
	.st75{fill:#BA181A;}
	.st76{fill:#AD191C;}
	.st77{fill:#161515;}
	.st78{fill:#1E1E1C;}
	.st79{fill:#0E472B;}
	.st80{fill:#D3C29D;}
	.st81{fill:#CC2717;}
	.st82{fill:#A81916;}
	.st83{fill:#805129;}
	.st84{fill:#F39323;}
	.st85{fill:#B56B20;}
	.st86{fill:#E52629;}
	.st87{fill:#7B9EC7;}
	.st88{fill:#48515A;}
	.st89{fill:#DED3C6;}
	.st90{fill:#3B444E;}
	.st91{fill:#6189B1;}
	.st92{fill:#97B8D7;}
	.st93{fill:#715038;}
	.st94{fill:#A3282E;}
	.st95{fill:#110506;}
	.st96{fill:#F3E4D4;}
	.st97{fill:#F4DCC9;}
	.st98{fill:#676767;}
	.st99{fill:#E0EDF3;}
	.st100{fill:#90443F;}
	.st101{fill:#989389;}
	.st102{fill:#F0DABE;}
	.st103{fill:#4F382A;}
	.st104{fill:#009245;}
	.st105{fill:#064928;}
</style>
<g>
	<g>
		<g>
			<path class="st8" d="M138.6,232.7c-1.2,0.3-2.3,0.6-3.4,0.9c-6.5,1.7-13.1,3.4-19.6,5.1c-4.9,1.2-9.8,2-14.8,2.5
				c-3,0.3-6.1,0.3-9.1,0.2c-5.7-0.3-11.2-1.5-16.5-3.6c-2.8-1.1-5.5-2.5-8-4.4c-0.1-0.1-0.3-0.2-0.5-0.3c-0.6,0.6-1.2,1.2-1.7,1.9
				c-0.7,0.8-1.5,1.1-2.5,0.8c-1.9-0.5-3.6-1.4-5.2-2.6c-0.7-0.6-0.8-1.4-0.6-2.3c-0.7-0.5-1.3-1-2-1.6c-0.7-0.6-0.9-1.1-0.6-1.7
				c0.3-0.6,1.1-0.8,1.9-0.4c0.6,0.3,1.1,0.6,1.8,1c0.4-0.8,0.9-1.6,1.3-2.5c-0.4-0.3-0.9-0.6-1.3-0.9c-0.4-0.3-0.7-0.6-1-0.9
				c-0.3-0.4-0.5-0.8-0.2-1.3c0.3-0.5,0.7-0.7,1.2-0.6c0.4,0.1,0.9,0.3,1.3,0.5c0.5,0.2,0.9,0.5,1.4,0.8c0.1-0.1,0.2-0.2,0.2-0.3
				c0.8-1.2,1.9-1.5,3.2-1.1c0.9,0.3,1.8,0.6,2.6,1c0.9,0.4,1.7,0.9,2.5,1.4c1,0.5,1.3,1.2,1,2.3c-0.3,0.9-0.7,1.8-1.1,2.7
				c-0.3,0.7-0.8,1.4-1.2,2.2c0.3,0.2,0.6,0.4,0.9,0.6c4.5,2.8,9.3,4.6,14.5,5.7c4.4,1,8.8,1.3,13.3,1.1c5.2-0.2,10.4-1,15.5-2.2
				c7.6-1.9,15.2-3.9,22.9-5.8c1.5-0.4,2.9-0.8,4.4-1.2c0.4-0.1,0.8-0.3,1-0.7c3-6.8,7.4-12.5,12.8-17.5c9.6-8.9,20.7-15,33.4-18.2
				c3.8-1,7.6-1.4,11.5-1.2c2.8,0.1,5.6,0.6,8.2,1.8c2.8,1.4,4.8,3.4,5.6,6.5c0.5,1.8,0.4,3.6,0.1,5.5c0,0.2-0.1,0.4-0.1,0.6
				c0.2,0,0.3,0.1,0.4,0.1c4.6-0.2,9.1-0.2,13.7,0.1c5.6,0.4,11.2,1,16.7,2.1c4.1,0.9,8.1,2.1,11.8,4c4.5,2.3,8.3,5.3,10.9,9.6
				c0.1,0.1,0.2,0.2,0.2,0.3c1.8-0.2,3.6-0.4,5.4-0.5c7-0.4,13.8,0.5,20.5,2.4c5.4,1.5,10.7,3.3,16.1,5c6.1,1.9,12.3,3.7,18.6,4.7
				c3.3,0.5,6.6,0.9,9.9,1.2c4.7,0.5,9.4,0.7,14,0.7c3.3,0,6.6-0.2,9.8-0.2c1.1,0,2.2,0,3.3,0c0-0.6,0.1-1.1,0-1.6
				c-0.2-1.5,0.5-2.6,1.8-3.2c1.1-0.5,2.3-0.8,3.5-1.1c0.8-0.2,1.7-0.3,2.5-0.3c1.4-0.1,2.2,0.5,2.6,1.8c0.1,0.4,0.2,0.8,0.3,1.3
				c0.4-0.1,0.9-0.2,1.3-0.3c0.5-0.1,1-0.2,1.4-0.3c0.7-0.1,1.2,0.3,1.4,0.9c0.1,0.5-0.2,1.2-0.9,1.3c-1,0.3-2,0.5-3,0.7
				c0,0.2,0,0.4,0,0.6c0,0.8,0.1,1.7,0.1,2.6c0.6-0.1,1.2-0.1,1.8-0.1c0.4,0,0.9,0,1.3,0c0.4,0,0.8,0.2,0.9,0.6
				c0.2,0.5,0,0.9-0.4,1.1c-0.3,0.2-0.7,0.4-1.1,0.5c-0.8,0.2-1.5,0.3-2.4,0.5c0,0.6,0,1.2,0,1.7c0,1.7-0.7,2.6-2.3,2.9
				c-1.8,0.3-3.7,0.5-5.6,0.4c-1.3-0.1-2-0.6-2.3-1.9c-0.2-1-0.3-2.1-0.4-3.1c-0.1-0.7-0.2-1.4-0.3-2.3c-0.5,0-1,0-1.5,0.1
				c-4.6,0.4-9.2,0.7-13.7,0.6c-2.8-0.1-5.6-0.1-8.4-0.3c-9.1-0.4-18.1-1.8-26.9-4.4c-5-1.5-9.9-3.1-14.9-4.7
				c-4.6-1.5-9.3-2.8-14.1-3.7c-4.1-0.7-8.1-1.1-12.2-0.9c-1.5,0.1-3,0.3-4.6,0.4c0,0.2,0,0.4,0.1,0.6c2.5,7,1.7,13.7-1.7,20.2
				c-2.3,4.4-5.6,8.2-9.2,11.5c-0.3,0.2-0.5,0.5-0.9,0.8c0.4,0.2,0.6,0.4,0.9,0.6c3.7,2.1,7.2,4.4,10.4,7.2c1.7,1.5,3.3,3.1,4.5,5
				c1.2,1.8,2.1,3.7,2.3,5.9c0.4,3.6-0.7,6.7-3.1,9.3c-1.5,1.6-3.3,2.7-5.3,3.5c-2.9,1.2-6,2-9.1,2.2c-5.7,0.5-11.3-0.1-16.7-2.1
				c-6.9-2.5-12-7-15.5-13.4c-0.1-0.3-0.3-0.5-0.5-0.8c-0.4,0.1-0.7,0.2-1,0.3c-9.4,3.4-19,6.3-28.7,8.5c-5.1,1.2-10.2,2.1-15.4,2.4
				c-3.5,0.2-7,0.3-10.5-0.5c-3.3-0.8-6.1-2.3-8.4-4.8c-2.7-3-3.7-6.5-3.4-10.4c0.2-2.1,0.8-4.1,1.6-6.1c0.1-0.3,0.3-0.7,0.4-1
				c-0.9-0.3-1.8-0.6-2.7-0.9c-4.2-1.4-8-3.6-11.2-6.7c-5.1-5.1-7.2-11.2-6.4-18.4c0.2-1.8,0.7-3.5,1-5.2
				C138.5,233.2,138.5,233,138.6,232.7z M261.6,223.1c-0.3-0.4-0.5-0.7-0.7-1c-2.1-2.6-4.7-4.6-7.6-6.2c-3.2-1.7-6.7-2.9-10.2-3.7
				c-3.5-0.8-7.1-1.4-10.7-1.7c-2.9-0.3-5.9-0.6-8.8-0.7c-3.1-0.1-6.2-0.1-9.2-0.1c-1.1,0-2.2,0.1-3.2,0.1c-0.5,0-0.8,0.2-1,0.7
				c-1.1,2.4-2.5,4.7-4.1,6.8c-1.4,1.8-2.8,3.5-4.2,5.3c-0.2,0.2-0.3,0.4-0.5,0.7c0.4,0.1,0.6,0.2,0.9,0.3c2.7,0.7,5.3,1.5,7.8,2.6
				c3.3,1.4,6.5,3.2,9.1,5.7c1.9,1.8,3.3,3.9,4,6.4c0.9,3.3,0.5,6.5-0.9,9.6c-0.1,0.3-0.3,0.6-0.4,1c0.5,0.1,0.9,0.2,1.4,0.2
				c0.4,0.1,0.9,0.1,1.3,0.2C232.8,234.7,245.7,226.9,261.6,223.1z M161.2,265.5c-1.1,2-1.8,4.3-2,6.4c-0.4,3.8,0.8,7,3.8,9.4
				c1.2,1,2.5,1.7,3.9,2.2c1.9,0.7,3.9,0.9,6,1c5.5,0.2,10.9-0.6,16.2-1.7c10.9-2.2,21.5-5.3,31.9-9.1c0.3-0.1,0.6-0.2,1-0.4
				c-2.5-7.1-1.7-14,1-21c-0.9-0.1-1.6-0.2-2.4-0.4c-0.5-0.1-0.9,0.1-1.3,0.5c-1.8,2.3-4,4.2-6.5,5.8c-3.5,2.3-7.3,4-11.3,5.3
				c-7.7,2.5-15.7,3.4-23.7,3.5c-5.2,0.1-10.3-0.4-15.5-1.4C162,265.6,161.7,265.5,161.2,265.5z M144,228.3c0.3,0,0.4,0,0.5,0
				c5.8-1.3,11.5-2.7,17.3-4.1c0.4-0.1,0.7-0.3,1-0.5c3.9-3.7,8.3-6.6,13.1-8.9c9.2-4.4,18.9-7.1,29.1-7.9c0.9-0.1,1.8-0.2,2.7-0.3
				c0.4-1.2,0.6-2.4,0.7-3.6c0-2.4-1-4.3-2.9-5.6c-0.7-0.5-1.4-0.8-2.2-1.1c-2-0.8-4.1-1.1-6.3-1.1c-3.8-0.1-7.5,0.4-11.1,1.4
				c-10.5,2.9-19.9,8-28.2,14.9c-5.3,4.4-9.7,9.6-13.1,15.6C144.5,227.4,144.3,227.8,144,228.3z M226.4,275c0.1,0.3,0.2,0.6,0.4,0.8
				c2.8,5.1,6.9,8.9,12.3,11.2c3.2,1.3,6.5,2.1,9.9,2.4c4.1,0.4,8.1,0.1,12.1-1.1c2.1-0.6,4.1-1.5,5.8-2.9c2.2-1.8,3.3-4.1,3.2-7
				c-0.1-1.7-0.7-3.3-1.6-4.7c-1.1-1.7-2.4-3.2-3.9-4.5c-3.5-3.2-7.4-5.6-11.5-7.8c-0.5-0.3-0.8-0.2-1.2,0.1c-2.5,1.7-4.9,3.4-7.4,5
				c-5.3,3.2-11,5.7-16.8,8.1C227.1,274.7,226.8,274.9,226.4,275z M263.4,226.2c-0.3,0-0.5,0-0.7,0.1c-7.6,1.4-14.5,4.4-20.8,8.7
				c-5.4,3.6-9.8,8.2-13.2,13.7c-0.2,0.3-0.4,0.7-0.6,1.1c8.4,1.6,16.4,3.9,24,7.5c4.7-4,8.8-8.5,11.3-14.3
				c1.6-3.8,2.2-7.7,1.5-11.8C264.6,229.5,264.1,227.8,263.4,226.2z M177.7,245.6c0.5,0.1,0.9,0.2,1.2,0.2c2.6,0.2,5.2,0.4,7.8,0.6
				c3.8,0.2,7.6,0.4,11.4,0.6c5,0.3,9.9,0.6,14.9,0.9c1.8,0.1,3.5,0.3,5.3,0.5c1.2-2,2-4.2,2-6.5c0.1-3-1.2-5.5-3.3-7.6
				c-1.7-1.7-3.6-3.1-5.8-4.2c-3.7-2-7.7-3.2-11.8-4.1c-0.5-0.1-0.8,0.1-1.2,0.4c-1.6,1.6-3.1,3.3-4.8,4.8c-4.2,4-8.5,7.9-12.8,11.8
				C179.7,243.7,178.8,244.6,177.7,245.6z M159.3,261.6c0.5-0.8,1-1.6,1.5-2.3c2.6-3.8,5.6-7.2,8.7-10.5c0.2-0.2,0.4-0.5,0.7-0.7
				c-2-0.6-3.9-1.1-5.7-1.8c-2.1-0.8-4-1.9-5.6-3.5c-2.2-2.4-3.2-5.1-2.7-8.4c0.3-2.1,1.2-3.9,2.3-5.6c0.2-0.3,0.4-0.6,0.6-0.9
				c-0.3,0-0.4,0-0.4,0c-5.2,1.2-10.3,2.5-15.5,3.7c-0.5,0.1-0.8,0.4-0.9,0.9c-1.1,3.1-1.7,6.3-1.6,9.5c0.1,4.4,1.5,8.2,4.3,11.5
				C148.8,257.8,153.7,260.2,159.3,261.6z M163,262.3c0.3,0.1,0.4,0.2,0.6,0.2c3.8,0.7,7.6,1.1,11.4,1.2c5.7,0.2,11.3-0.2,16.9-1.1
				c5-0.8,9.8-2.2,14.4-4.3c3.3-1.5,6.3-3.4,8.9-6c0.2-0.2,0.4-0.5,0.7-0.8c-0.2-0.1-0.3-0.1-0.4-0.1c-2.4-0.2-4.8-0.4-7.3-0.6
				c-3-0.2-6-0.3-9-0.5c-4.4-0.2-8.7-0.4-13.1-0.7c-3.7-0.2-7.3-0.6-11-0.9c-0.5,0-0.8,0-1.1,0.4c-3.8,3.9-7.5,7.8-10.5,12.3
				C163.4,261.7,163.2,262,163,262.3z M194.4,225c-0.4-0.1-0.7-0.2-0.9-0.2c-2-0.1-3.9-0.4-5.9-0.4c-4.2-0.1-8.5,0.1-12.7,0.6
				c-3.2,0.4-6.4,0.9-9.5,1.4c-0.4,0.1-0.8,0.2-1.1,0.6c-0.9,1.1-1.8,2.1-2.7,3.3c-0.8,1-1.4,2.2-1.8,3.5c-0.8,2.8-0.1,5.1,2,7.1
				c1.1,1,2.4,1.7,3.8,2.3c2.1,0.9,4.4,1.4,6.6,1.8c0.7,0.1,1.1,0,1.6-0.5c2.2-2.1,4.5-4.2,6.8-6.3c4.4-4,8.9-7.9,13-12.2
				C193.9,225.7,194.1,225.4,194.4,225z M225.1,272c0.4-0.1,0.7-0.2,1-0.4c2.4-1,4.8-2,7.1-3c5.2-2.3,10.2-5,14.8-8.3
				c0.3-0.2,0.6-0.5,1-0.8c-7.4-3.3-14.9-5.4-22.7-6.7C223.8,259.2,222.9,265.5,225.1,272z M206.2,210c-0.7,0.1-1.1,0.1-1.6,0.2
				c-7,0.6-13.7,2.2-20.3,4.6c-5,1.8-9.8,4.1-14.2,7.3c-0.3,0.2-0.5,0.4-0.8,0.6c0.4,0.1,0.8,0.1,1.1,0c3.3-0.4,6.5-0.8,9.8-1
				c3-0.2,6-0.1,8.9-0.1c2.1,0.1,4.1,0.3,6.2,0.5c1.7,0.2,1.7,0.3,2.8-1c2.7-3.1,5.3-6.3,7.4-9.8C205.7,211,205.9,210.6,206.2,210z"
				/>
		</g>
		<g>
			<g>
				<path class="st9" d="M81.2,235c0-0.6,0.2-1.2,0.5-1.7c0.2-0.4,0.5-0.8,0.8-1.3c0.2-0.3,0.4-0.7,0.7-1.1c0.5-0.7,1-1.4,1.6-2
					c0.2-0.2,0.4-0.4,0.7-0.5c0.7-0.4,1.4,0,1.7,0.6c0.1,0.2,0.2,0.5,0.2,0.8c0.1,0.4,0.1,0.8,0.2,1.1c0.2,1.3,0.2,2.5,0,3.8
					c-0.1,0.6-0.2,1.1-0.4,1.7c-0.3,0.7-0.8,1.1-1.5,1.2c-0.2,0-0.4,0.1-0.6,0.1c-0.5,0-1,0-1.5-0.2c-0.4-0.1-0.7-0.2-1-0.3
					c-0.1,0-0.1-0.1-0.2-0.1C81.6,236.6,81.1,235.9,81.2,235z"/>
				<path class="st10" d="M81.5,239.7c0-0.1,0-0.3,0-0.4c0.1-0.7,0.4-1.4,0.6-2.1c0-0.1,0.1-0.2,0.2-0.2c0.1,0,0.1,0.1,0.2,0.1
					c0.3,0.1,0.7,0.3,1,0.3c0.5,0.1,1,0.2,1.5,0.2c0.1,0.1,0.1,0.3,0,0.5c0,0.2-0.1,0.5-0.1,0.7c-0.1,0.5-0.2,1-0.3,1.5
					c-0.1,0.3-0.2,0.4-0.5,0.4c-0.7-0.1-1.4-0.2-2-0.5c-0.1-0.1-0.2-0.1-0.3-0.1C81.6,240,81.5,239.9,81.5,239.7z"/>
			</g>
			<g>
				<path class="st11" d="M112.7,234.5c-0.2-0.6-0.3-1.2-0.3-1.8c0-0.5,0.1-0.9,0.1-1.5c0-0.4,0.1-0.8,0.2-1.3
					c0.1-0.8,0.3-1.7,0.6-2.5c0.1-0.3,0.2-0.5,0.4-0.8c0.4-0.6,1.3-0.6,1.8-0.2c0.2,0.2,0.4,0.4,0.5,0.6c0.2,0.3,0.4,0.7,0.7,1
					c0.8,1,1.3,2.2,1.6,3.4c0.2,0.6,0.3,1.1,0.3,1.7c0,0.7-0.2,1.3-0.8,1.8c-0.2,0.1-0.3,0.2-0.5,0.3c-0.4,0.2-0.9,0.4-1.4,0.5
					c-0.4,0.1-0.7,0.1-1.1,0.1c-0.1,0-0.1,0-0.2,0C113.8,235.8,113.1,235.3,112.7,234.5z"/>
				<path class="st10" d="M115,238.6c-0.1-0.1-0.1-0.2-0.1-0.4c-0.2-0.7-0.3-1.5-0.3-2.2c0-0.1,0-0.2,0-0.3c0.1,0,0.1,0,0.2,0
					c0.4,0,0.7-0.1,1.1-0.1c0.5-0.1,1-0.2,1.4-0.5c0.1,0.1,0.2,0.2,0.3,0.4c0.1,0.2,0.1,0.5,0.2,0.7c0.1,0.5,0.2,1,0.4,1.5
					c0.1,0.3,0,0.5-0.3,0.6c-0.7,0.2-1.3,0.4-2.1,0.4c-0.1,0-0.2,0-0.4,0C115.2,238.8,115.1,238.8,115,238.6z"/>
			</g>
			<g>
				<path class="st14" d="M153.1,230.8c0.2,0.6,0.4,1.2,0.3,1.8c0,0.5-0.1,0.9-0.1,1.5c0,0.4-0.1,0.8-0.2,1.3
					c-0.1,0.8-0.3,1.7-0.6,2.5c-0.1,0.3-0.2,0.5-0.4,0.8c-0.4,0.6-1.3,0.6-1.8,0.2c-0.2-0.2-0.4-0.4-0.5-0.6c-0.2-0.3-0.4-0.7-0.7-1
					c-0.8-1-1.3-2.2-1.7-3.4c-0.2-0.6-0.3-1.1-0.3-1.7c-0.1-0.7,0.2-1.3,0.8-1.8c0.2-0.1,0.3-0.2,0.5-0.3c0.4-0.2,0.9-0.4,1.4-0.5
					c0.4-0.1,0.7-0.1,1.1-0.1c0.1,0,0.1,0,0.2,0C152.1,229.6,152.8,230.1,153.1,230.8z"/>
				<path class="st10" d="M150.8,226.7c0.1,0.1,0.1,0.2,0.2,0.4c0.2,0.7,0.3,1.5,0.4,2.2c0,0.1,0,0.2,0,0.3c-0.1,0-0.1,0-0.2,0
					c-0.4,0-0.7,0.1-1.1,0.1c-0.5,0.1-1,0.3-1.4,0.5c-0.1-0.1-0.2-0.2-0.3-0.4c-0.1-0.2-0.1-0.5-0.2-0.7c-0.1-0.5-0.3-1-0.4-1.5
					c-0.1-0.3,0-0.5,0.3-0.6c0.7-0.2,1.3-0.4,2-0.4c0.1,0,0.2,0,0.4,0C150.6,226.6,150.7,226.6,150.8,226.7z"/>
			</g>
			<g>
				<path class="st13" d="M188,226.2c0.1,0.6,0,1.2-0.2,1.8c-0.2,0.4-0.4,0.9-0.6,1.4c-0.2,0.3-0.3,0.8-0.5,1.2
					c-0.4,0.8-0.8,1.5-1.3,2.2c-0.2,0.2-0.4,0.5-0.6,0.6c-0.6,0.4-1.4,0.2-1.7-0.3c-0.1-0.2-0.2-0.5-0.3-0.7
					c-0.1-0.4-0.2-0.7-0.3-1.1c-0.4-1.2-0.6-2.5-0.5-3.8c0-0.6,0-1.1,0.2-1.7c0.2-0.7,0.6-1.2,1.3-1.4c0.2-0.1,0.4-0.1,0.6-0.2
					c0.5-0.1,1-0.1,1.5,0c0.4,0,0.7,0.1,1.1,0.2c0.1,0,0.1,0,0.2,0.1C187.4,224.7,187.9,225.4,188,226.2z"/>
				<path class="st10" d="M187,221.6c0,0.1,0,0.3,0,0.4c0,0.7-0.2,1.5-0.3,2.2c0,0.1-0.1,0.2-0.1,0.3c-0.1,0-0.1,0-0.2-0.1
					c-0.4-0.1-0.7-0.2-1.1-0.2c-0.5-0.1-1-0.1-1.5,0c-0.1-0.1-0.1-0.3-0.1-0.5c0-0.2,0-0.5,0-0.7c0-0.5,0.1-1,0.1-1.5
					c0-0.3,0.2-0.5,0.5-0.5c0.7,0,1.4,0,2.1,0.2c0.1,0,0.2,0.1,0.4,0.1C186.9,221.4,187,221.5,187,221.6z"/>
			</g>
			<g>
				<path class="st12" d="M217.1,236.3c-0.4,0.5-0.8,0.9-1.4,1.2c-0.4,0.2-0.8,0.4-1.4,0.7c-0.3,0.2-0.8,0.3-1.2,0.5
					c-0.8,0.3-1.6,0.6-2.4,0.8c-0.3,0.1-0.6,0.1-0.9,0.1c-0.7-0.1-1.2-0.8-1.1-1.4c0-0.3,0.1-0.5,0.2-0.8c0.2-0.4,0.3-0.7,0.5-1.1
					c0.5-1.2,1.2-2.2,2.1-3.2c0.4-0.4,0.8-0.8,1.3-1.2c0.6-0.4,1.2-0.5,1.9-0.2c0.2,0.1,0.4,0.2,0.5,0.3c0.4,0.3,0.8,0.6,1.2,1
					c0.2,0.3,0.5,0.6,0.7,0.9c0,0.1,0.1,0.1,0.1,0.2C217.6,234.8,217.6,235.6,217.1,236.3z"/>
				<path class="st10" d="M219.4,232.2c-0.1,0.1-0.1,0.2-0.2,0.3c-0.5,0.5-1.1,1-1.7,1.4c-0.1,0.1-0.2,0.1-0.3,0.1
					c0-0.1-0.1-0.1-0.1-0.2c-0.2-0.3-0.4-0.6-0.7-0.9c-0.3-0.4-0.7-0.7-1.2-1c0-0.1,0.1-0.3,0.2-0.4c0.2-0.2,0.3-0.3,0.5-0.5
					c0.4-0.4,0.7-0.7,1.1-1.1c0.2-0.2,0.4-0.2,0.7,0c0.5,0.5,1,0.9,1.4,1.5c0.1,0.1,0.1,0.2,0.2,0.3
					C219.5,232,219.5,232.1,219.4,232.2z"/>
			</g>
			<g>
				<path class="st9" d="M209.5,261.8c0.4,0.5,0.6,1.1,0.7,1.7c0.1,0.5,0.1,0.9,0.2,1.5c0,0.4,0.1,0.8,0.1,1.3
					c0.1,0.9,0.1,1.7,0,2.6c0,0.3-0.1,0.6-0.2,0.9c-0.3,0.7-1.1,0.9-1.7,0.6c-0.2-0.1-0.4-0.3-0.6-0.4c-0.3-0.3-0.6-0.5-0.9-0.8
					c-1-0.8-1.7-1.9-2.4-3c-0.3-0.5-0.5-1-0.7-1.6c-0.2-0.7-0.1-1.3,0.4-1.9c0.1-0.2,0.3-0.3,0.4-0.4c0.4-0.3,0.8-0.6,1.3-0.8
					c0.3-0.1,0.7-0.3,1-0.4c0.1,0,0.1,0,0.2,0C208.2,260.8,209,261.1,209.5,261.8z"/>
				<path class="st10" d="M206.3,258.3c0.1,0.1,0.2,0.2,0.2,0.3c0.3,0.7,0.6,1.4,0.8,2.1c0,0.1,0,0.2,0,0.3c-0.1,0-0.1,0-0.2,0
					c-0.3,0.1-0.7,0.2-1,0.4c-0.5,0.2-0.9,0.5-1.3,0.8c-0.1,0-0.3-0.2-0.3-0.4c-0.1-0.2-0.2-0.4-0.3-0.6c-0.2-0.5-0.5-0.9-0.7-1.4
					c-0.1-0.3-0.1-0.5,0.2-0.6c0.6-0.4,1.2-0.7,1.9-0.9c0.1,0,0.2-0.1,0.3-0.1C206.1,258.2,206.2,258.2,206.3,258.3z"/>
			</g>
			<g>
				<path class="st11" d="M174.3,268.4c0,0.6,0,1.2-0.3,1.8c-0.2,0.4-0.4,0.9-0.6,1.4c-0.2,0.3-0.4,0.8-0.6,1.2
					c-0.4,0.8-0.8,1.5-1.3,2.2c-0.2,0.2-0.4,0.5-0.6,0.6c-0.6,0.4-1.4,0.2-1.7-0.4c-0.1-0.2-0.2-0.5-0.3-0.7
					c-0.1-0.4-0.2-0.8-0.3-1.1c-0.4-1.2-0.5-2.5-0.5-3.8c0-0.6,0.1-1.1,0.2-1.7c0.2-0.7,0.6-1.2,1.3-1.4c0.2-0.1,0.4-0.1,0.6-0.1
					c0.5-0.1,1-0.1,1.5,0c0.4,0,0.7,0.1,1.1,0.2c0.1,0,0.1,0,0.2,0.1C173.7,266.9,174.2,267.6,174.3,268.4z"/>
				<path class="st10" d="M173.4,263.8c0,0.1,0,0.3,0,0.4c0,0.7-0.2,1.5-0.4,2.2c0,0.1-0.1,0.2-0.1,0.3c-0.1,0-0.1,0-0.2-0.1
					c-0.4-0.1-0.7-0.2-1.1-0.2c-0.5-0.1-1-0.1-1.5,0c-0.1-0.1-0.1-0.3-0.1-0.5c0-0.2,0-0.5,0-0.7c0-0.5,0.1-1,0.1-1.5
					c0-0.3,0.2-0.5,0.5-0.5c0.7,0,1.4,0,2.1,0.2c0.1,0,0.2,0.1,0.4,0.1C173.3,263.6,173.4,263.7,173.4,263.8z"/>
			</g>
			<g>
				<path class="st14" d="M140.9,254.5c-0.4,0.5-0.9,0.8-1.4,1.1c-0.4,0.2-0.9,0.4-1.4,0.6c-0.4,0.1-0.8,0.3-1.2,0.5
					c-0.8,0.3-1.6,0.5-2.5,0.7c-0.3,0.1-0.6,0.1-0.9,0c-0.7-0.1-1.1-0.8-1-1.5c0.1-0.3,0.2-0.5,0.3-0.7c0.2-0.3,0.4-0.7,0.5-1
					c0.6-1.2,1.4-2.2,2.3-3c0.4-0.4,0.8-0.8,1.3-1.1c0.6-0.4,1.3-0.4,1.9-0.1c0.2,0.1,0.4,0.2,0.5,0.3c0.4,0.3,0.8,0.6,1.1,1
					c0.2,0.3,0.4,0.6,0.6,0.9c0,0.1,0.1,0.1,0.1,0.2C141.5,253,141.4,253.8,140.9,254.5z"/>
				<path class="st10" d="M143.5,250.5c-0.1,0.1-0.2,0.2-0.3,0.3c-0.5,0.5-1.2,0.9-1.8,1.3c-0.1,0.1-0.2,0.1-0.3,0.1
					c0-0.1-0.1-0.1-0.1-0.2c-0.2-0.3-0.4-0.6-0.6-0.9c-0.3-0.4-0.7-0.8-1.1-1c0-0.1,0.1-0.3,0.3-0.4c0.2-0.2,0.3-0.3,0.5-0.5
					c0.4-0.3,0.8-0.7,1.1-1c0.2-0.2,0.4-0.2,0.7,0c0.5,0.5,1,1,1.3,1.6c0.1,0.1,0.1,0.2,0.2,0.3
					C143.5,250.3,143.5,250.4,143.5,250.5z"/>
			</g>
			<g>
				<path class="st13" d="M144.1,219c-0.5-0.3-1-0.7-1.4-1.2c-0.3-0.4-0.5-0.8-0.8-1.3c-0.2-0.3-0.5-0.7-0.7-1.1
					c-0.4-0.7-0.8-1.5-1.1-2.3c-0.1-0.3-0.2-0.6-0.2-0.9c0-0.7,0.6-1.3,1.2-1.3c0.3,0,0.5,0.1,0.8,0.1c0.4,0.1,0.7,0.2,1.1,0.3
					c1.2,0.3,2.4,0.9,3.4,1.7c0.5,0.3,0.9,0.7,1.3,1.1c0.5,0.5,0.6,1.2,0.5,1.9c0,0.2-0.1,0.4-0.2,0.6c-0.2,0.5-0.5,0.9-0.8,1.3
					c-0.2,0.3-0.5,0.5-0.8,0.8c0,0-0.1,0.1-0.2,0.1C145.6,219.4,144.8,219.4,144.1,219z"/>
				<path class="st10" d="M148.4,220.8c-0.1,0-0.2-0.1-0.3-0.2c-0.6-0.4-1.1-1-1.6-1.5c-0.1-0.1-0.1-0.2-0.2-0.2
					c0.1,0,0.1-0.1,0.2-0.1c0.3-0.2,0.5-0.5,0.8-0.8c0.3-0.4,0.6-0.8,0.8-1.3c0.1,0,0.3,0,0.5,0.2c0.2,0.1,0.4,0.3,0.6,0.4
					c0.4,0.3,0.8,0.6,1.2,0.9c0.2,0.2,0.3,0.4,0.1,0.6c-0.4,0.6-0.8,1.2-1.3,1.6c-0.1,0.1-0.2,0.2-0.3,0.3
					C148.7,220.8,148.6,220.9,148.4,220.8z"/>
			</g>
			<g>
				<path class="st12" d="M168.9,198.5c-0.4-0.5-0.6-1-0.8-1.6c-0.1-0.5-0.2-0.9-0.3-1.5c-0.1-0.4-0.1-0.8-0.2-1.3
					c-0.1-0.9-0.1-1.7-0.1-2.6c0-0.3,0.1-0.6,0.2-0.9c0.3-0.7,1.1-0.9,1.6-0.7c0.2,0.1,0.5,0.3,0.7,0.4c0.3,0.2,0.6,0.5,0.9,0.8
					c1,0.8,1.8,1.8,2.5,2.9c0.3,0.5,0.6,1,0.8,1.5c0.2,0.7,0.1,1.3-0.3,1.9c-0.1,0.2-0.3,0.3-0.4,0.4c-0.4,0.3-0.8,0.6-1.2,0.8
					c-0.3,0.2-0.7,0.3-1,0.4c-0.1,0-0.1,0-0.2,0C170.2,199.4,169.4,199.1,168.9,198.5z"/>
				<path class="st10" d="M172.2,201.8c-0.1-0.1-0.2-0.2-0.2-0.3c-0.4-0.6-0.6-1.3-0.9-2c0-0.1-0.1-0.2,0-0.3c0.1,0,0.1,0,0.2,0
					c0.3-0.1,0.7-0.2,1-0.4c0.5-0.2,0.9-0.5,1.2-0.8c0.1,0,0.3,0.2,0.4,0.3c0.1,0.2,0.2,0.4,0.4,0.6c0.2,0.4,0.5,0.9,0.7,1.3
					c0.1,0.3,0.1,0.5-0.2,0.6c-0.6,0.4-1.2,0.8-1.9,1c-0.1,0-0.2,0.1-0.3,0.1C172.4,202,172.3,201.9,172.2,201.8z"/>
			</g>
			<g>
				<path class="st9" d="M205.5,192c0.2-0.6,0.5-1.1,1-1.5c0.3-0.3,0.7-0.6,1.1-1c0.3-0.2,0.6-0.5,1-0.8c0.7-0.5,1.4-1,2.1-1.4
					c0.3-0.1,0.5-0.3,0.8-0.3c0.7-0.1,1.4,0.4,1.4,1c0,0.3,0,0.5,0,0.8c0,0.4-0.1,0.8-0.2,1.2c-0.1,1.3-0.6,2.5-1.2,3.6
					c-0.3,0.5-0.5,1-0.9,1.5c-0.5,0.6-1.1,0.8-1.8,0.7c-0.2,0-0.4-0.1-0.6-0.1c-0.5-0.1-0.9-0.3-1.4-0.6c-0.3-0.2-0.6-0.4-0.9-0.6
					c0,0-0.1-0.1-0.1-0.1C205.4,193.6,205.2,192.8,205.5,192z"/>
				<path class="st10" d="M204.4,196.6c0-0.1,0.1-0.3,0.1-0.4c0.3-0.7,0.8-1.2,1.2-1.8c0.1-0.1,0.1-0.2,0.2-0.2c0,0,0.1,0.1,0.1,0.1
					c0.3,0.2,0.6,0.5,0.9,0.6c0.4,0.3,0.9,0.5,1.4,0.6c0,0.1,0,0.3-0.1,0.5c-0.1,0.2-0.2,0.4-0.3,0.6c-0.3,0.4-0.5,0.9-0.8,1.3
					c-0.2,0.3-0.3,0.3-0.6,0.2c-0.6-0.3-1.3-0.6-1.8-1.1c-0.1-0.1-0.2-0.2-0.3-0.2C204.4,196.8,204.4,196.7,204.4,196.6z"/>
			</g>
			<g>
				<path class="st11" d="M207.1,216.8c0.6,0.2,1.1,0.6,1.5,1.1c0.3,0.4,0.6,0.7,1,1.2c0.2,0.3,0.5,0.7,0.8,1c0.5,0.7,1,1.4,1.4,2.2
					c0.1,0.3,0.2,0.5,0.3,0.8c0.1,0.7-0.5,1.3-1.1,1.4c-0.3,0-0.5,0-0.8,0c-0.4-0.1-0.8-0.2-1.1-0.2c-1.3-0.2-2.5-0.7-3.6-1.3
					c-0.5-0.3-1-0.6-1.4-1c-0.5-0.5-0.8-1.1-0.6-1.8c0-0.2,0.1-0.4,0.1-0.6c0.1-0.5,0.4-0.9,0.7-1.4c0.2-0.3,0.4-0.6,0.7-0.9
					c0,0,0.1-0.1,0.1-0.1C205.5,216.6,206.3,216.5,207.1,216.8z"/>
				<path class="st10" d="M202.5,215.5c0.1,0,0.2,0.1,0.4,0.2c0.6,0.4,1.2,0.9,1.8,1.3c0.1,0.1,0.1,0.2,0.2,0.2
					c-0.1,0-0.1,0.1-0.1,0.1c-0.2,0.3-0.5,0.6-0.7,0.9c-0.3,0.4-0.5,0.9-0.7,1.4c-0.1,0-0.3,0-0.5-0.1c-0.2-0.1-0.4-0.2-0.6-0.4
					c-0.4-0.3-0.9-0.5-1.3-0.8c-0.3-0.2-0.3-0.4-0.2-0.6c0.3-0.6,0.7-1.2,1.2-1.7c0.1-0.1,0.2-0.2,0.2-0.3
					C202.3,215.5,202.4,215.4,202.5,215.5z"/>
			</g>
			<g>
				<path class="st14" d="M183,241.7c0.5,0.3,1,0.7,1.3,1.2c0.3,0.4,0.5,0.8,0.8,1.3c0.2,0.3,0.4,0.7,0.6,1.1c0.4,0.8,0.8,1.5,1,2.4
					c0.1,0.3,0.2,0.6,0.2,0.9c0,0.7-0.6,1.3-1.3,1.2c-0.3,0-0.5-0.1-0.8-0.1c-0.4-0.1-0.7-0.3-1.1-0.4c-1.2-0.4-2.3-1-3.4-1.8
					c-0.5-0.3-0.9-0.7-1.3-1.2c-0.5-0.6-0.6-1.2-0.4-1.9c0.1-0.2,0.1-0.4,0.2-0.6c0.2-0.5,0.5-0.9,0.8-1.2c0.2-0.3,0.5-0.5,0.8-0.8
					c0.1,0,0.1-0.1,0.2-0.1C181.5,241.3,182.3,241.2,183,241.7z"/>
				<path class="st10" d="M178.7,239.8c0.1,0.1,0.2,0.1,0.3,0.2c0.6,0.5,1.1,1,1.6,1.5c0.1,0.1,0.1,0.2,0.1,0.2
					c-0.1,0-0.1,0.1-0.2,0.1c-0.3,0.2-0.5,0.5-0.8,0.8c-0.3,0.4-0.6,0.8-0.8,1.2c-0.1,0-0.3,0-0.5-0.2c-0.2-0.2-0.4-0.3-0.6-0.4
					c-0.4-0.3-0.8-0.6-1.2-1c-0.2-0.2-0.3-0.4-0.1-0.7c0.4-0.6,0.8-1.1,1.4-1.6c0.1-0.1,0.2-0.2,0.3-0.2
					C178.5,239.7,178.6,239.7,178.7,239.8z"/>
			</g>
			<g>
				<path class="st13" d="M156.5,266.5c-0.6-0.1-1.2-0.2-1.7-0.6c-0.4-0.3-0.8-0.5-1.3-0.8c-0.3-0.2-0.7-0.5-1.1-0.8
					c-0.7-0.5-1.3-1.1-1.9-1.7c-0.2-0.2-0.4-0.5-0.5-0.7c-0.3-0.7,0.1-1.4,0.7-1.6c0.2-0.1,0.5-0.2,0.8-0.2c0.4-0.1,0.8-0.1,1.2-0.1
					c1.3-0.2,2.5-0.1,3.8,0.2c0.6,0.1,1.1,0.3,1.6,0.5c0.7,0.3,1,0.8,1.2,1.6c0,0.2,0,0.4,0,0.6c0,0.5-0.1,1-0.2,1.5
					c-0.1,0.3-0.3,0.7-0.4,1c0,0.1-0.1,0.1-0.1,0.2C158.1,266.2,157.3,266.6,156.5,266.5z"/>
				<path class="st10" d="M161.2,266.5c-0.1,0-0.3,0-0.4,0c-0.7-0.2-1.4-0.5-2.1-0.7c-0.1,0-0.2-0.1-0.2-0.2c0-0.1,0.1-0.1,0.1-0.2
					c0.2-0.3,0.3-0.7,0.4-1c0.2-0.5,0.2-1,0.2-1.5c0.1-0.1,0.3-0.1,0.5,0c0.2,0.1,0.5,0.1,0.7,0.2c0.5,0.1,1,0.2,1.5,0.4
					c0.3,0.1,0.4,0.2,0.4,0.6c-0.1,0.7-0.3,1.4-0.6,2c-0.1,0.1-0.1,0.2-0.1,0.3C161.4,266.4,161.3,266.5,161.2,266.5z"/>
			</g>
			<g>
				<path class="st12" d="M186.7,287.8c0.2,0.6,0.2,1.2,0.1,1.8c-0.1,0.5-0.2,0.9-0.3,1.5c-0.1,0.4-0.2,0.8-0.3,1.3
					c-0.2,0.8-0.5,1.6-0.8,2.4c-0.1,0.3-0.3,0.5-0.5,0.7c-0.5,0.6-1.3,0.5-1.8,0c-0.2-0.2-0.3-0.4-0.5-0.6c-0.2-0.3-0.4-0.7-0.6-1
					c-0.7-1.1-1-2.3-1.3-3.6c-0.1-0.6-0.2-1.1-0.2-1.7c0-0.7,0.4-1.3,1-1.7c0.2-0.1,0.4-0.2,0.5-0.3c0.5-0.2,1-0.3,1.5-0.3
					c0.4,0,0.7,0,1.1,0c0.1,0,0.1,0,0.2,0C185.8,286.4,186.5,287,186.7,287.8z"/>
				<path class="st10" d="M184.8,283.4c0.1,0.1,0.1,0.2,0.1,0.4c0.1,0.7,0.1,1.5,0.1,2.2c0,0.1,0,0.2-0.1,0.3c-0.1,0-0.1,0-0.2,0
					c-0.4,0-0.7,0-1.1,0c-0.5,0-1,0.2-1.5,0.3c-0.1-0.1-0.2-0.2-0.2-0.5c0-0.2-0.1-0.5-0.1-0.7c-0.1-0.5-0.2-1-0.2-1.5
					c0-0.3,0.1-0.5,0.4-0.5c0.7-0.2,1.4-0.3,2.1-0.2c0.1,0,0.2,0,0.4,0C184.7,283.2,184.8,283.3,184.8,283.4z"/>
			</g>
			<g>
				<path class="st9" d="M219.5,278.8c0.3,0.5,0.5,1.1,0.6,1.7c0,0.5,0.1,0.9,0.1,1.5c0,0.4,0,0.8,0,1.3c0,0.9-0.1,1.7-0.2,2.6
					c0,0.3-0.1,0.6-0.3,0.8c-0.3,0.7-1.2,0.8-1.7,0.5c-0.2-0.1-0.4-0.3-0.6-0.5c-0.3-0.3-0.5-0.6-0.8-0.8c-0.9-0.9-1.6-2-2.2-3.1
					c-0.3-0.5-0.5-1.1-0.6-1.6c-0.2-0.7,0-1.3,0.5-1.9c0.1-0.1,0.3-0.3,0.5-0.4c0.4-0.3,0.8-0.5,1.3-0.7c0.3-0.1,0.7-0.2,1-0.3
					c0.1,0,0.1,0,0.2,0C218.3,277.7,219.1,278.1,219.5,278.8z"/>
				<path class="st10" d="M216.6,275.1c0.1,0.1,0.2,0.2,0.2,0.3c0.3,0.7,0.5,1.4,0.7,2.1c0,0.1,0,0.2,0,0.3c-0.1,0-0.1,0-0.2,0
					c-0.4,0.1-0.7,0.2-1,0.3c-0.5,0.2-0.9,0.4-1.3,0.7c-0.1,0-0.2-0.2-0.3-0.4c-0.1-0.2-0.2-0.4-0.3-0.7c-0.2-0.5-0.4-0.9-0.6-1.4
					c-0.1-0.3-0.1-0.5,0.2-0.6c0.6-0.3,1.2-0.6,2-0.7c0.1,0,0.2-0.1,0.4-0.1C216.4,274.9,216.5,275,216.6,275.1z"/>
			</g>
			<g>
				<path class="st11" d="M249.6,263.6c0.5,0.3,0.9,0.8,1.2,1.3c0.2,0.4,0.4,0.8,0.7,1.3c0.2,0.3,0.4,0.8,0.6,1.2
					c0.3,0.8,0.6,1.6,0.9,2.4c0.1,0.3,0.1,0.6,0.1,0.9c0,0.7-0.7,1.2-1.4,1.1c-0.3,0-0.5-0.1-0.8-0.2c-0.4-0.1-0.7-0.3-1.1-0.4
					c-1.2-0.5-2.3-1.2-3.3-2c-0.4-0.4-0.9-0.8-1.2-1.2c-0.4-0.6-0.5-1.2-0.3-1.9c0.1-0.2,0.2-0.4,0.3-0.5c0.2-0.4,0.6-0.8,0.9-1.2
					c0.3-0.3,0.5-0.5,0.8-0.7c0.1,0,0.1-0.1,0.2-0.1C248.1,263.1,248.9,263.2,249.6,263.6z"/>
				<path class="st10" d="M245.5,261.4c0.1,0.1,0.2,0.1,0.3,0.2c0.6,0.5,1,1.1,1.5,1.7c0.1,0.1,0.1,0.2,0.1,0.3
					c-0.1,0-0.1,0.1-0.2,0.1c-0.3,0.2-0.6,0.4-0.8,0.7c-0.4,0.4-0.7,0.7-0.9,1.2c-0.1,0-0.3-0.1-0.5-0.2c-0.2-0.2-0.4-0.3-0.5-0.5
					c-0.4-0.3-0.7-0.7-1.1-1c-0.2-0.2-0.2-0.4-0.1-0.7c0.4-0.5,0.9-1.1,1.5-1.5c0.1-0.1,0.2-0.1,0.3-0.2
					C245.2,261.4,245.3,261.4,245.5,261.4z"/>
			</g>
			<g>
				<path class="st14" d="M269.5,235.7c0.6,0,1.2,0,1.8,0.3c0.4,0.2,0.9,0.4,1.4,0.6c0.3,0.2,0.8,0.4,1.2,0.6
					c0.8,0.4,1.5,0.8,2.2,1.4c0.2,0.2,0.5,0.4,0.6,0.6c0.4,0.6,0.2,1.4-0.4,1.7c-0.2,0.1-0.5,0.2-0.7,0.3c-0.4,0.1-0.8,0.2-1.1,0.3
					c-1.2,0.4-2.5,0.5-3.8,0.5c-0.6,0-1.1-0.1-1.7-0.2c-0.7-0.2-1.2-0.6-1.4-1.3c-0.1-0.2-0.1-0.4-0.1-0.6c-0.1-0.5-0.1-1,0-1.5
					c0-0.4,0.1-0.7,0.2-1.1c0-0.1,0-0.1,0.1-0.2C268,236.3,268.7,235.8,269.5,235.7z"/>
				<path class="st10" d="M264.9,236.6c0.1,0,0.3,0,0.4,0c0.7,0,1.5,0.2,2.2,0.4c0.1,0,0.2,0.1,0.3,0.1c0,0.1,0,0.1-0.1,0.2
					c-0.1,0.4-0.2,0.7-0.2,1.1c-0.1,0.5-0.1,1,0,1.5c-0.1,0.1-0.3,0.1-0.5,0.1c-0.2,0-0.5,0-0.7,0c-0.5,0-1-0.1-1.5-0.1
					c-0.3,0-0.4-0.2-0.4-0.5c0-0.7,0-1.4,0.3-2.1c0-0.1,0.1-0.2,0.1-0.4C264.7,236.7,264.8,236.6,264.9,236.6z"/>
			</g>
			<g>
				<path class="st13" d="M249.1,214.9c0,0.6-0.2,1.2-0.5,1.7c-0.2,0.4-0.5,0.8-0.8,1.3c-0.2,0.3-0.5,0.7-0.7,1.1
					c-0.5,0.7-1,1.4-1.6,2c-0.2,0.2-0.4,0.4-0.7,0.5c-0.7,0.3-1.4,0-1.7-0.6c-0.1-0.2-0.2-0.5-0.2-0.8c-0.1-0.4-0.1-0.8-0.2-1.2
					c-0.2-1.3-0.2-2.5,0.1-3.8c0.1-0.6,0.2-1.1,0.5-1.7c0.3-0.7,0.8-1.1,1.5-1.2c0.2,0,0.4-0.1,0.6-0.1c0.5,0,1,0.1,1.5,0.2
					c0.3,0.1,0.7,0.2,1,0.4c0.1,0,0.1,0.1,0.2,0.1C248.7,213.4,249.2,214.1,249.1,214.9z"/>
				<path class="st10" d="M248.9,210.2c0,0.1,0,0.3,0,0.4c-0.1,0.7-0.4,1.4-0.7,2.1c0,0.1-0.1,0.2-0.2,0.2c-0.1,0-0.1-0.1-0.2-0.1
					c-0.3-0.1-0.7-0.3-1-0.4c-0.5-0.1-1-0.2-1.5-0.2c-0.1-0.1-0.1-0.3,0-0.5c0.1-0.2,0.1-0.5,0.1-0.7c0.1-0.5,0.2-1,0.3-1.5
					c0.1-0.3,0.2-0.4,0.5-0.4c0.7,0.1,1.4,0.2,2,0.5c0.1,0.1,0.2,0.1,0.3,0.1C248.8,210,248.9,210.1,248.9,210.2z"/>
			</g>
			<g>
				<path class="st12" d="M213.8,204.9c-0.1-0.6-0.1-1.2,0-1.8c0.1-0.5,0.3-0.9,0.4-1.4c0.1-0.4,0.3-0.8,0.4-1.2
					c0.3-0.8,0.6-1.6,1-2.4c0.1-0.3,0.3-0.5,0.5-0.7c0.6-0.5,1.4-0.4,1.8,0.1c0.2,0.2,0.3,0.4,0.4,0.7c0.2,0.3,0.3,0.7,0.5,1.1
					c0.6,1.2,0.8,2.4,1,3.7c0.1,0.6,0.1,1.1,0,1.7c-0.1,0.7-0.5,1.2-1.1,1.6c-0.2,0.1-0.4,0.2-0.6,0.2c-0.5,0.2-1,0.2-1.5,0.2
					c-0.4,0-0.7,0-1.1-0.1c-0.1,0-0.1,0-0.2,0C214.6,206.3,214,205.7,213.8,204.9z"/>
				<path class="st10" d="M215.3,209.4c0-0.1-0.1-0.3-0.1-0.4c-0.1-0.7,0-1.5,0.1-2.2c0-0.1,0-0.2,0.1-0.3c0.1,0,0.1,0,0.2,0
					c0.4,0,0.7,0.1,1.1,0.1c0.5,0,1-0.1,1.5-0.2c0.1,0.1,0.2,0.3,0.2,0.5c0,0.2,0,0.5,0.1,0.7c0,0.5,0.1,1,0.1,1.5
					c0,0.3-0.1,0.5-0.4,0.5c-0.7,0.1-1.4,0.2-2.1,0c-0.1,0-0.2,0-0.4,0C215.4,209.6,215.3,209.5,215.3,209.4z"/>
			</g>
			<g>
				<path class="st9" d="M180.8,211.3c-0.3-0.5-0.6-1.1-0.7-1.7c-0.1-0.5-0.1-0.9-0.2-1.5c0-0.4-0.1-0.8-0.1-1.3
					c0-0.9,0-1.7,0.1-2.6c0-0.3,0.1-0.6,0.2-0.9c0.3-0.7,1.1-0.9,1.7-0.6c0.2,0.1,0.4,0.3,0.6,0.5c0.3,0.3,0.5,0.6,0.8,0.8
					c1,0.9,1.7,1.9,2.3,3c0.3,0.5,0.5,1,0.7,1.6c0.2,0.7,0,1.3-0.5,1.9c-0.1,0.2-0.3,0.3-0.4,0.4c-0.4,0.3-0.8,0.6-1.3,0.8
					c-0.3,0.1-0.7,0.2-1,0.3c-0.1,0-0.1,0-0.2,0C182,212.4,181.3,212,180.8,211.3z"/>
				<path class="st10" d="M183.9,214.9c-0.1-0.1-0.2-0.2-0.2-0.3c-0.3-0.7-0.5-1.4-0.8-2.1c0-0.1,0-0.2,0-0.3c0.1,0,0.1,0,0.2,0
					c0.4-0.1,0.7-0.2,1-0.3c0.5-0.2,0.9-0.4,1.3-0.8c0.1,0,0.3,0.2,0.3,0.4c0.1,0.2,0.2,0.4,0.3,0.6c0.2,0.5,0.4,0.9,0.6,1.4
					c0.1,0.3,0.1,0.5-0.2,0.6c-0.6,0.3-1.2,0.7-1.9,0.8c-0.1,0-0.2,0.1-0.4,0.1C184.1,215,184,215,183.9,214.9z"/>
			</g>
			<g>
				<path class="st11" d="M160.6,231.4c0.6-0.2,1.2-0.2,1.8-0.1c0.5,0.1,0.9,0.2,1.5,0.3c0.4,0.1,0.8,0.2,1.3,0.4
					c0.8,0.3,1.6,0.6,2.4,0.9c0.3,0.1,0.5,0.3,0.7,0.5c0.5,0.5,0.4,1.3,0,1.8c-0.2,0.2-0.4,0.3-0.7,0.4c-0.3,0.2-0.7,0.3-1,0.5
					c-1.1,0.6-2.4,0.9-3.6,1.1c-0.6,0.1-1.1,0.1-1.7,0.1c-0.7-0.1-1.3-0.4-1.6-1.1c-0.1-0.2-0.2-0.4-0.2-0.6c-0.2-0.5-0.3-1-0.3-1.5
					c0-0.4,0-0.7,0-1.1c0-0.1,0-0.1,0-0.2C159.2,232.3,159.8,231.7,160.6,231.4z"/>
				<path class="st10" d="M156.2,233.1c0.1,0,0.3-0.1,0.4-0.1c0.7-0.1,1.5,0,2.2,0c0.1,0,0.2,0,0.3,0.1c0,0.1,0,0.1,0,0.2
					c0,0.4,0,0.7,0,1.1c0,0.5,0.1,1,0.3,1.5c-0.1,0.1-0.2,0.2-0.5,0.2c-0.2,0-0.5,0.1-0.7,0.1c-0.5,0-1,0.1-1.5,0.1
					c-0.3,0-0.5-0.1-0.5-0.4c-0.1-0.7-0.2-1.4-0.1-2.1c0-0.1,0-0.2,0-0.4C156,233.3,156.1,233.2,156.2,233.1z"/>
			</g>
			<g>
				<path class="st14" d="M195.1,251.6c0.1,0.6,0,1.2-0.2,1.8c-0.2,0.4-0.4,0.9-0.6,1.4c-0.2,0.3-0.3,0.8-0.5,1.2
					c-0.4,0.8-0.8,1.5-1.3,2.2c-0.2,0.2-0.4,0.5-0.6,0.6c-0.6,0.5-1.4,0.2-1.7-0.3c-0.1-0.2-0.3-0.5-0.3-0.7
					c-0.1-0.4-0.2-0.7-0.4-1.1c-0.4-1.2-0.6-2.5-0.6-3.8c0-0.6,0-1.1,0.2-1.7c0.2-0.7,0.6-1.2,1.3-1.4c0.2-0.1,0.4-0.1,0.6-0.2
					c0.5-0.1,1-0.1,1.5-0.1c0.4,0,0.7,0.1,1.1,0.2c0.1,0,0.1,0,0.2,0.1C194.5,250.1,195,250.8,195.1,251.6z"/>
				<path class="st10" d="M194.1,247c0,0.1,0,0.3,0,0.4c0,0.7-0.2,1.5-0.3,2.2c0,0.1-0.1,0.2-0.1,0.3c-0.1,0-0.1,0-0.2-0.1
					c-0.4-0.1-0.7-0.2-1.1-0.2c-0.5-0.1-1,0-1.5,0.1c-0.1-0.1-0.1-0.3-0.1-0.5c0-0.2,0-0.5,0-0.7c0-0.5,0-1,0.1-1.5
					c0-0.3,0.2-0.5,0.5-0.5c0.7,0,1.4,0,2.1,0.2c0.1,0,0.2,0.1,0.4,0.1C194,246.8,194.1,246.9,194.1,247z"/>
			</g>
			<g>
				<path class="st13" d="M224.6,253.3c0.1,0.6,0,1.2-0.2,1.8c-0.2,0.4-0.4,0.9-0.6,1.4c-0.2,0.3-0.3,0.8-0.5,1.2
					c-0.4,0.8-0.8,1.5-1.3,2.2c-0.2,0.2-0.4,0.5-0.6,0.6c-0.6,0.5-1.4,0.2-1.7-0.3c-0.1-0.2-0.3-0.5-0.3-0.7
					c-0.1-0.4-0.2-0.7-0.4-1.1c-0.4-1.2-0.6-2.5-0.6-3.8c0-0.6,0-1.1,0.2-1.7c0.2-0.7,0.6-1.2,1.3-1.4c0.2-0.1,0.4-0.1,0.6-0.2
					c0.5-0.1,1-0.1,1.5-0.1c0.4,0,0.7,0.1,1.1,0.2c0.1,0,0.1,0,0.2,0.1C224,251.8,224.5,252.5,224.6,253.3z"/>
				<path class="st10" d="M223.6,248.7c0,0.1,0,0.3,0,0.4c0,0.7-0.2,1.5-0.3,2.2c0,0.1-0.1,0.2-0.1,0.3c-0.1,0-0.1,0-0.2-0.1
					c-0.4-0.1-0.7-0.2-1.1-0.2c-0.5-0.1-1,0-1.5,0.1c-0.1-0.1-0.1-0.3-0.1-0.5c0-0.2,0-0.5,0-0.7c0-0.5,0-1,0.1-1.5
					c0-0.3,0.2-0.5,0.5-0.5c0.7,0,1.4,0,2.1,0.2c0.1,0,0.2,0.1,0.4,0.1C223.5,248.5,223.6,248.6,223.6,248.7z"/>
			</g>
			<g>
				<path class="st12" d="M258.8,259.4c0.2-0.6,0.6-1.1,1.1-1.5c0.4-0.3,0.7-0.6,1.2-0.9c0.3-0.2,0.7-0.5,1.1-0.8
					c0.7-0.5,1.4-0.9,2.2-1.3c0.3-0.1,0.5-0.2,0.8-0.3c0.7-0.1,1.3,0.5,1.4,1.1c0,0.3,0,0.5-0.1,0.8c-0.1,0.4-0.2,0.8-0.2,1.1
					c-0.2,1.3-0.7,2.5-1.3,3.6c-0.3,0.5-0.6,1-1,1.4c-0.5,0.5-1.1,0.7-1.8,0.6c-0.2,0-0.4-0.1-0.6-0.2c-0.5-0.1-0.9-0.4-1.3-0.7
					c-0.3-0.2-0.6-0.4-0.8-0.7c0,0-0.1-0.1-0.1-0.1C258.6,261,258.5,260.2,258.8,259.4z"/>
				<path class="st10" d="M257.4,263.9c0-0.1,0.1-0.2,0.2-0.4c0.4-0.6,0.9-1.2,1.3-1.8c0.1-0.1,0.2-0.1,0.2-0.2
					c0,0.1,0.1,0.1,0.1,0.1c0.3,0.2,0.5,0.5,0.8,0.7c0.4,0.3,0.9,0.5,1.3,0.7c0,0.1,0,0.3-0.1,0.5c-0.1,0.2-0.2,0.4-0.4,0.6
					c-0.3,0.4-0.5,0.9-0.8,1.3c-0.2,0.3-0.4,0.3-0.6,0.2c-0.6-0.3-1.2-0.7-1.7-1.2c-0.1-0.1-0.2-0.2-0.3-0.2
					C257.4,264.2,257.4,264.1,257.4,263.9z"/>
			</g>
			<g>
				<path class="st9" d="M249,288c-0.1-0.6-0.1-1.2,0.1-1.8c0.1-0.5,0.3-0.9,0.5-1.4c0.1-0.4,0.3-0.8,0.5-1.2
					c0.3-0.8,0.7-1.6,1.1-2.3c0.2-0.3,0.3-0.5,0.6-0.7c0.6-0.5,1.4-0.3,1.8,0.2c0.2,0.2,0.3,0.4,0.4,0.7c0.1,0.4,0.3,0.7,0.4,1.1
					c0.5,1.2,0.7,2.4,0.8,3.7c0,0.6,0,1.1-0.1,1.7c-0.1,0.7-0.5,1.2-1.2,1.5c-0.2,0.1-0.4,0.1-0.6,0.2c-0.5,0.1-1,0.2-1.5,0.2
					c-0.4,0-0.7-0.1-1.1-0.1c-0.1,0-0.1,0-0.2,0C249.7,289.5,249.2,288.8,249,288z"/>
				<path class="st10" d="M250.3,292.5c0-0.1-0.1-0.3-0.1-0.4c0-0.7,0.1-1.5,0.2-2.2c0-0.1,0.1-0.2,0.1-0.3c0.1,0,0.1,0,0.2,0
					c0.4,0.1,0.7,0.1,1.1,0.1c0.5,0,1,0,1.5-0.2c0.1,0.1,0.2,0.3,0.2,0.5c0,0.2,0,0.5,0,0.7c0,0.5,0,1,0,1.5c0,0.3-0.1,0.5-0.4,0.5
					c-0.7,0.1-1.4,0.1-2.1-0.1c-0.1,0-0.2,0-0.4-0.1C250.5,292.7,250.4,292.7,250.3,292.5z"/>
			</g>
			<g>
				<path class="st11" d="M224.8,263.5c0.6-0.2,1.2-0.3,1.8-0.2c0.5,0.1,0.9,0.2,1.5,0.2c0.4,0.1,0.8,0.2,1.3,0.3
					c0.8,0.2,1.7,0.4,2.5,0.7c0.3,0.1,0.5,0.3,0.8,0.4c0.6,0.5,0.5,1.3,0.1,1.8c-0.2,0.2-0.4,0.3-0.6,0.5c-0.3,0.2-0.7,0.4-1,0.6
					c-1.1,0.7-2.3,1.1-3.5,1.4c-0.6,0.1-1.1,0.2-1.7,0.2c-0.7,0-1.3-0.3-1.7-0.9c-0.1-0.2-0.2-0.4-0.3-0.5c-0.2-0.5-0.3-0.9-0.4-1.5
					c0-0.4-0.1-0.7-0.1-1.1c0-0.1,0-0.1,0-0.2C223.4,264.4,224,263.7,224.8,263.5z"/>
				<path class="st10" d="M220.5,265.5c0.1-0.1,0.2-0.1,0.4-0.1c0.7-0.1,1.5-0.2,2.2-0.2c0.1,0,0.2,0,0.3,0.1c0,0.1,0,0.1,0,0.2
					c0,0.4,0,0.7,0.1,1.1c0.1,0.5,0.2,1,0.4,1.5c-0.1,0.1-0.2,0.2-0.4,0.2c-0.2,0-0.5,0.1-0.7,0.1c-0.5,0.1-1,0.2-1.5,0.3
					c-0.3,0.1-0.5-0.1-0.6-0.4c-0.2-0.7-0.3-1.4-0.3-2.1c0-0.1,0-0.2,0-0.4C220.3,265.6,220.4,265.5,220.5,265.5z"/>
			</g>
			<g>
				<path class="st14" d="M249.3,231.2c0.5,0.4,0.8,0.9,1,1.5c0.2,0.4,0.3,0.9,0.5,1.4c0.1,0.4,0.3,0.8,0.4,1.3
					c0.2,0.8,0.4,1.7,0.5,2.5c0,0.3,0,0.6,0,0.9c-0.2,0.7-0.9,1.1-1.5,0.9c-0.3-0.1-0.5-0.2-0.7-0.3c-0.3-0.2-0.7-0.4-1-0.6
					c-1.1-0.6-2.1-1.5-2.9-2.4c-0.4-0.4-0.7-0.9-1-1.4c-0.4-0.6-0.3-1.3,0-1.9c0.1-0.2,0.2-0.4,0.3-0.5c0.3-0.4,0.7-0.7,1.1-1
					c0.3-0.2,0.6-0.4,0.9-0.6c0.1,0,0.1-0.1,0.2-0.1C247.9,230.5,248.7,230.6,249.3,231.2z"/>
				<path class="st10" d="M245.5,228.4c0.1,0.1,0.2,0.2,0.3,0.3c0.5,0.6,0.8,1.2,1.2,1.8c0.1,0.1,0.1,0.2,0.1,0.3
					c-0.1,0-0.1,0-0.2,0.1c-0.3,0.2-0.6,0.4-0.9,0.6c-0.4,0.3-0.8,0.6-1.1,1c-0.1,0-0.3-0.1-0.4-0.3c-0.2-0.2-0.3-0.4-0.5-0.6
					c-0.3-0.4-0.6-0.8-0.9-1.2c-0.2-0.2-0.2-0.4,0-0.7c0.5-0.5,1-0.9,1.7-1.2c0.1,0,0.2-0.1,0.3-0.2
					C245.3,228.3,245.4,228.4,245.5,228.4z"/>
			</g>
			<g>
				<path class="st13" d="M292.7,223.3c0.1-0.6,0.2-1.2,0.6-1.7c0.2-0.4,0.5-0.8,0.8-1.3c0.2-0.3,0.5-0.7,0.8-1.1
					c0.5-0.7,1.1-1.3,1.7-1.9c0.2-0.2,0.4-0.4,0.7-0.5c0.7-0.3,1.4,0,1.6,0.6c0.1,0.2,0.2,0.5,0.2,0.8c0.1,0.4,0.1,0.8,0.1,1.2
					c0.2,1.3,0.1,2.5-0.2,3.8c-0.1,0.6-0.3,1.1-0.5,1.7c-0.3,0.7-0.8,1-1.5,1.2c-0.2,0-0.4,0-0.6,0c-0.5,0-1-0.1-1.5-0.2
					c-0.3-0.1-0.7-0.2-1-0.4c-0.1,0-0.1-0.1-0.2-0.1C293,224.9,292.6,224.1,292.7,223.3z"/>
				<path class="st10" d="M292.8,228c0-0.1,0-0.3,0-0.4c0.2-0.7,0.5-1.4,0.7-2.1c0-0.1,0.1-0.2,0.2-0.2c0.1,0,0.1,0.1,0.2,0.1
					c0.3,0.1,0.7,0.3,1,0.4c0.5,0.2,1,0.2,1.5,0.2c0.1,0.1,0.1,0.3,0,0.5c-0.1,0.2-0.1,0.5-0.2,0.7c-0.1,0.5-0.2,1-0.4,1.5
					c-0.1,0.3-0.2,0.4-0.5,0.4c-0.7-0.1-1.4-0.2-2-0.6c-0.1-0.1-0.2-0.1-0.3-0.1C292.9,228.2,292.8,228.1,292.8,228z"/>
			</g>
			<g>
				<path class="st12" d="M335.5,239.6c0.1,0.6,0.1,1.2-0.1,1.8c-0.1,0.5-0.3,0.9-0.5,1.4c-0.1,0.4-0.3,0.8-0.5,1.2
					c-0.3,0.8-0.7,1.6-1.2,2.3c-0.2,0.3-0.3,0.5-0.6,0.7c-0.6,0.5-1.4,0.3-1.8-0.2c-0.2-0.2-0.3-0.5-0.4-0.7
					c-0.1-0.4-0.3-0.7-0.4-1.1c-0.5-1.2-0.7-2.4-0.8-3.7c0-0.6,0-1.1,0.1-1.7c0.1-0.7,0.5-1.2,1.2-1.5c0.2-0.1,0.4-0.1,0.6-0.2
					c0.5-0.1,1-0.2,1.5-0.1c0.4,0,0.7,0.1,1.1,0.1c0.1,0,0.1,0,0.2,0.1C334.8,238.2,335.4,238.8,335.5,239.6z"/>
				<path class="st10" d="M334.2,235.1c0,0.1,0.1,0.3,0.1,0.4c0,0.7-0.1,1.5-0.2,2.2c0,0.1-0.1,0.2-0.1,0.3c-0.1,0-0.1,0-0.2-0.1
					c-0.4-0.1-0.7-0.1-1.1-0.1c-0.5,0-1,0-1.5,0.1c-0.1-0.1-0.2-0.3-0.1-0.5c0-0.2,0-0.5,0-0.7c0-0.5,0-1,0-1.5
					c0-0.3,0.1-0.5,0.4-0.5c0.7-0.1,1.4-0.1,2.1,0.1c0.1,0,0.2,0,0.4,0.1C334.1,234.9,334.2,234.9,334.2,235.1z"/>
			</g>
		</g>
	</g>
	<g>
		<path class="st24" d="M87.3,152.7c-0.1-0.7-0.2-1.4-0.3-2.1c-0.6,0-1.4,0-2.2,0c-0.8,0-1.6,0-2.3,0c0,0.7,0,1.3,0,2H81
			c0-2.1,0.2-4.4,0.7-7.3c0.2-1.2,0.4-2.2,0.7-3.2l0-0.1c0.3-0.9,0.6-2,1-2.9l0-0.1c0.2-0.4,0.6-1.2,1.3-1.3c1-0.1,1.4,1,1.6,1.6
			l0.1,0.2c0.3,0.6,0.5,1.2,0.7,2c0.4,1.3,0.6,2.7,0.7,4c0.3,2.3,0.6,4.7,0.9,6.9L87.3,152.7z M86.9,149.1c-0.1-1.1-0.3-2.2-0.4-3.3
			c-0.2-1.2-0.4-2.6-0.7-3.8c-0.2-0.7-0.4-1.2-0.6-1.8c0-0.1-0.1-0.1-0.1-0.2c0-0.1,0-0.2-0.1-0.3c0,0,0,0,0,0.1l0,0.1
			c-0.4,0.8-0.7,1.7-1,2.7l0,0c-0.3,0.9-0.5,1.9-0.7,3c-0.2,1.3-0.4,2.5-0.5,3.6c0.6,0,1.4,0,2.2,0
			C85.6,149.1,86.3,149.1,86.9,149.1z"/>
		<path class="st24" d="M92.5,152.7c-0.1-4.7-0.2-9.4-0.1-14.1l1.5,0c-0.1,4.7,0,9.4,0.1,14L92.5,152.7z"/>
		<path class="st24" d="M99,152.6c-0.4-4.5-0.6-9.4-0.4-13.8l0-0.2h1.5c2.4,2.7,4.5,6.1,6.2,9.7c-0.1-3.3-0.2-6.7-0.2-9.7l1.5,0
			c0,4.3,0.1,9.3,0.4,13.9v0.2h-1.5c-1.6-4.3-3.9-8.5-6.5-11.9c-0.1,3.8,0.1,7.9,0.4,11.6L99,152.6z"/>
		<path class="st24" d="M111.6,136.1c0,1.5,0.1,3.5-0.2,4.4l-1.6,0.6c0.1-1.1,0.1-2.9-0.1-4.1L111.6,136.1z"/>
		<path class="st24" d="M119.8,139.7c-0.9-0.2-1.9-0.3-2.8-0.4c0,4.4,0,8.9,0.1,13.3l-1.5,0c-0.1-4.4-0.2-8.9-0.1-13.4
			c-0.6,0-1.3,0.1-1.9,0.2l-0.2-1.5c2.2-0.3,4.5-0.2,6.7,0.3L119.8,139.7z"/>
		<path class="st24" d="M129.6,152.6c-0.4-4.5-0.6-9.4-0.4-13.8l0-0.2h1.5c2.4,2.7,4.5,6.1,6.2,9.7c-0.1-3.3-0.2-6.7-0.2-9.7l1.5,0
			c0,4.3,0.1,9.3,0.4,13.9v0.2h-1.5c-1.6-4.3-3.9-8.5-6.5-11.9c-0.1,3.8,0.1,7.9,0.4,11.6L129.6,152.6z"/>
		<path class="st24" d="M144.7,152.7c-1,0-1.9-0.4-2.6-1.2c-0.7-0.7-1.2-1.8-1.5-3.2c-0.4-2-0.4-4.4,0-6.5c0.6-2.4,1.6-4,3.1-4.4
			c1.3-0.4,2.6,0,3.6,1c2.1,2.2,2.9,7.1,1.8,10.7c-0.7,2.1-2,3.4-3.8,3.7C145.1,152.6,144.9,152.7,144.7,152.7z M144.7,138.7
			c-0.2,0-0.4,0-0.6,0.1c-1.9,0.6-3,5.4-2.1,9.2c0.3,1.3,1.1,3.5,3,3.2c1.5-0.2,2.2-1.6,2.6-2.7c1-2.9,0.3-7.4-1.4-9.1
			C145.7,138.9,145.3,138.7,144.7,138.7z"/>
		<path class="st24" d="M153.5,152.7c-0.3,0-0.6,0-0.8,0l-0.7-0.1v-0.7c0-3.5-0.2-8.8-0.5-13.8l0-0.5l0.5-0.2
			c1.2-0.5,2.8-0.2,3.9,0.7c0.9,0.7,1.7,1.8,2.2,3.2c0.6,1.5,0.6,2.7,0.2,3.8c-0.5,1.4-1.8,2.3-2.8,2.9l-0.3,0.2
			c0.7,0.4,1.4,1.3,1.2,2.4c-0.1,0.9-0.8,1.6-1.7,1.9C154.3,152.6,153.9,152.7,153.5,152.7z M153.1,138.6c0.2,3,0.3,6.1,0.3,8.8
			c0.4-0.2,0.9-0.4,1.4-0.7c0.9-0.5,1.8-1.1,2.1-2.1c0.3-0.7,0.2-1.7-0.2-2.8c-0.4-1.1-1-2-1.7-2.6
			C154.4,138.8,153.7,138.6,153.1,138.6z M153.5,151.2c0.3,0,0.5,0,0.7-0.1c0.3-0.1,0.6-0.3,0.7-0.7c0-0.4-0.3-0.8-0.6-0.9
			c-0.3-0.1-0.6-0.2-0.9-0.3C153.5,149.9,153.5,150.5,153.5,151.2z"/>
		<path class="st24" d="M164.9,152.7c-1,0-1.9-0.4-2.6-1.2c-0.7-0.7-1.2-1.8-1.5-3.2c-0.4-2-0.4-4.4,0-6.5c0.6-2.4,1.6-4,3.1-4.4
			c1.3-0.4,2.6,0,3.6,1c2.1,2.2,2.9,7.1,1.8,10.7c-0.7,2.1-2,3.4-3.8,3.7C165.3,152.6,165.1,152.7,164.9,152.7z M165,138.7
			c-0.2,0-0.4,0-0.6,0.1c-1.9,0.6-3,5.4-2.1,9.2c0.3,1.3,1.1,3.5,3,3.2c1.5-0.2,2.2-1.6,2.6-2.7c1-2.9,0.3-7.4-1.4-9.1
			C166,138.9,165.5,138.7,165,138.7z"/>
		<path class="st24" d="M171.8,152.7l0-0.9c-0.1-2.3-0.1-4.7-0.2-6.9c0-2.3-0.1-4.7-0.2-6.9l0-0.7l0.6-0.1c1.2-0.2,2.4,0.3,3.6,1.3
			c2.5,2.2,3.8,5.5,3.4,8.6c-0.1,1-0.4,1.8-0.9,2.5c-1.3,2.1-3.7,2.6-5.5,3L171.8,152.7z M172.9,138.6c0.1,2.1,0.1,4.2,0.2,6.2
			l0.1,6.1c1.6-0.4,2.9-0.9,3.7-2.1c0.3-0.5,0.5-1.2,0.6-1.9c0.3-2.6-0.8-5.4-2.9-7.3C174.3,139.2,173.6,138.7,172.9,138.6z"/>
		<path class="st24" d="M188.9,148.5c-0.1,0.9-0.3,3.3-2.2,4c-0.3,0.1-0.7,0.2-1.1,0.2c-0.7,0-1.4-0.2-2-0.5
			c-0.7-0.4-1.2-1.1-1.4-1.8l1.5-0.3c0.1,0.4,0.4,0.6,0.6,0.8c0.5,0.3,1.3,0.4,1.8,0.2c0.8-0.3,1.1-1.1,1.3-2.7v-0.1
			c-0.5,0.6-1.3,1-2.2,1c-0.3,0-0.6,0-0.8-0.1c-1.3-0.5-1.7-2-1.9-2.5c-0.8-2.8-0.7-5.8-0.7-8.7l1.5,0c-0.1,2.7-0.2,5.6,0.6,8.2
			c0.3,0.8,0.6,1.3,1,1.5c0.5,0.2,1-0.1,1.4-0.5l0.2-0.2c0.5-0.5,0.9-1,1-2.5c0-0.6,0-1.2-0.1-1.7c-0.1-1.6-0.1-3.2-0.1-4.8l1.5,0.1
			c0,1.5,0,3.1,0.1,4.7C188.9,144.6,189,146.6,188.9,148.5z"/>
		<path class="st24" d="M203,148.8c0.5-0.2,2.7-0.5,3.6-0.4l-0.1,1.5c-0.2,0-0.4,0-0.7,0c-0.1,0.6-0.3,1.2-0.7,1.7
			c-0.5,0.8-1.3,1.1-2,1.1c-0.3,0-0.5,0-0.7-0.1c-0.5-0.2-0.9-0.7-1.1-1c-1-1.4-1.7-3.3-1.9-5.7c-0.2-2.1,0-4.2,0.7-6
			c0.5-1.3,1.1-2,2-2.4c0.7-0.3,1.4-0.1,2,0.3c0.5,0.4,0.8,1,0.8,1.6l-1.5-0.1c0-0.1-0.1-0.2-0.2-0.3c-0.2-0.1-0.4-0.2-0.6-0.1
			c-0.4,0.2-0.8,0.7-1.1,1.5c-0.6,1.6-0.8,3.4-0.6,5.3c0.3,2.2,0.8,3.9,1.7,5.1c0.1,0.2,0.3,0.4,0.5,0.5c0.3,0.1,0.7-0.1,0.9-0.4
			c0.1-0.2,0.2-0.4,0.3-0.7c-0.3,0-0.6,0.1-0.7,0.1L203,148.8z"/>
		<path class="st24" d="M212.7,152.7c-1,0-1.9-0.4-2.6-1.2c-0.7-0.7-1.2-1.8-1.5-3.2c-0.4-2-0.4-4.4,0-6.5c0.6-2.4,1.6-4,3.1-4.4
			c1.3-0.4,2.6,0,3.6,1c2.1,2.2,2.9,7.1,1.8,10.7c-0.7,2.1-2,3.4-3.8,3.7C213.1,152.6,212.9,152.7,212.7,152.7z M212.8,138.7
			c-0.2,0-0.4,0-0.6,0.1c-1.9,0.6-3,5.4-2.1,9.2c0.3,1.3,1.1,3.5,3,3.2c1.5-0.2,2.2-1.6,2.6-2.7c1-2.9,0.3-7.4-1.4-9.1
			C213.8,138.9,213.3,138.7,212.8,138.7z"/>
		<path class="st24" d="M226.1,139.7c-0.9-0.2-1.9-0.3-2.8-0.4c0,4.4,0,8.9,0.1,13.3l-1.5,0c-0.1-4.4-0.2-8.9-0.1-13.4
			c-0.6,0-1.3,0.1-1.9,0.2l-0.2-1.5c2.2-0.3,4.5-0.2,6.7,0.3L226.1,139.7z"/>
		<path class="st24" d="M243.6,139.7c-0.9-0.2-1.9-0.3-2.8-0.4c0,4.4,0,8.9,0.1,13.3l-1.5,0c-0.1-4.4-0.2-8.9-0.1-13.4
			c-0.6,0-1.3,0.1-1.9,0.2l-0.2-1.5c2.2-0.3,4.5-0.2,6.7,0.3L243.6,139.7z"/>
		<path class="st24" d="M248.2,152.7c-0.1-4.7-0.2-9.4-0.1-14.1l1.5,0c-0.1,4.7,0,9.4,0.1,14L248.2,152.7z"/>
		<path class="st24" d="M263.8,138.6c0.3,4.7,0.5,9.4,0.4,14.1l-1.5,0c0-3.9,0-7.9-0.3-11.9c-0.9,1.4-1.7,2.9-2.4,4.4l-0.5,1.3
			l-0.8-1.1c-1.2-1.6-2.4-3.2-3.6-4.5c0,0.2,0,0.3,0,0.5c0.2,3.6,0.4,7.7,0.7,11.2l-1.5,0.1c-0.3-3.5-0.5-7.6-0.7-11.2l-0.1-2.5
			l0-0.4h1.4c1.3,1.4,2.8,3.1,4.3,5c0.8-1.7,1.8-3.4,3-5h1.5V138.6z"/>
		<path class="st24" d="M271.7,152.2c-0.8,0.3-1.6,0.5-2.4,0.5c-0.2,0-0.5,0-0.7,0c-0.4,0-0.9-0.1-1.3-0.5c-0.6-0.6-0.7-1.4-0.7-2.2
			c0-2-0.1-4-0.1-6c0-2-0.1-4-0.1-6v-0.7l0.7,0c1.4-0.1,2.7,0.1,3.9,0.6l-0.6,1.4c-0.7-0.3-1.6-0.5-2.5-0.5c0,1.7,0.1,3.5,0.1,5.2
			c0,1.5,0,3,0.1,4.4l1.2-0.1l0.1,1.5l-1.3,0.1v0c0,0.3,0,1,0.2,1.2c0.1,0.1,0.3,0.1,0.5,0.1c0.8,0.1,1.6,0,2.4-0.4L271.7,152.2z"/>
		<path class="st24" d="M286.5,138.1l-0.1,1.5c-0.4,0-0.8-0.1-1.2-0.2c-0.4-0.1-0.7-0.1-1.1-0.2c-0.2,0-1,0-1.3,0.6
			c-0.2,0.3-0.2,0.7-0.2,1.2c-0.2,2.7,0,5.3,0.3,7.9l1.8-0.1l0.1,1.5l-1.7,0.1c0.1,0.6,0.2,1.3,0.4,1.9l-1.5,0.3
			c-0.8-3.8-1.2-7.8-0.9-11.7c0-0.6,0.1-1.2,0.4-1.8c0.5-0.9,1.5-1.4,2.7-1.4c0.5,0,0.9,0.1,1.3,0.2
			C285.8,138,286.2,138.1,286.5,138.1z"/>
		<path class="st24" d="M292.7,152.7c-1,0-1.9-0.4-2.6-1.2c-0.7-0.7-1.2-1.8-1.5-3.2c-0.4-2-0.4-4.4,0-6.5c0.6-2.4,1.6-4,3.1-4.4
			c1.3-0.4,2.6,0,3.6,1c2.1,2.2,2.9,7.1,1.8,10.7c-0.7,2.1-2,3.4-3.8,3.7C293,152.6,292.8,152.7,292.7,152.7z M292.7,138.7
			c-0.2,0-0.4,0-0.6,0.1c-1.9,0.6-3,5.4-2.1,9.2c0.3,1.3,1.1,3.5,3,3.2c1.5-0.2,2.2-1.6,2.6-2.7c1-2.9,0.3-7.4-1.4-9.1
			C293.7,138.9,293.2,138.7,292.7,138.7z"/>
		<path class="st24" d="M306.5,147.6c-0.8,1.1-2,1.9-3.4,2.2l0.1,0.1c0.6,0.5,1.2,1,1.8,1.6l-1,1.1c-0.7-0.6-1.3-1.1-1.8-1.6
			c-0.2-0.2-0.3-0.3-0.5-0.5c0,0.5,0,1,0,1.6l-1.5,0c-0.1-4.7-0.2-9.3-0.1-14v-0.7l0.7,0c1.2,0,1.7,0,2.6,0.4
			c0.9,0.4,1.7,0.8,2.3,1.4c0.6,0.6,1.1,1.5,1.5,2.4C308,143.6,307.7,145.9,306.5,147.6z M305.9,142.1c-0.2-0.7-0.6-1.4-1.1-1.8
			c-0.4-0.4-1-0.8-1.8-1.1c-0.4-0.2-0.7-0.3-1.3-0.3c0,3.2,0,6.4,0,9.5c1.3,0.1,2.7-0.6,3.6-1.7
			C306.2,145.4,306.5,143.7,305.9,142.1z"/>
		<path class="st24" d="M322.6,139.7c-0.9-0.2-1.9-0.3-2.8-0.4c0,4.4,0,8.9,0.1,13.3l-1.5,0c-0.1-4.4-0.2-8.9-0.1-13.4
			c-0.6,0-1.3,0.1-1.9,0.2l-0.2-1.5c2.2-0.3,4.5-0.2,6.7,0.3L322.6,139.7z"/>
		<path class="st24" d="M331.7,138.5c0.8,4.7,1.1,9.4,0.8,14.2l-1.5-0.1c0-0.6,0.1-1.2,0.1-1.8c-1.2,0-2.3,0-3.5,0.1
			c0,0.5,0.1,0.9,0.2,1.4l-1.5,0.2c-0.6-4.4-1.1-8.9-1.4-13.4l1.5-0.1c0.3,3.5,0.6,7,1,10.5c1.3-0.1,2.4-0.1,3.7-0.1
			c0-3.5-0.3-7.1-0.9-10.5L331.7,138.5z"/>
		<path class="st24" d="M341.2,152.7c-0.1-0.7-0.2-1.4-0.3-2.1c-0.6,0-1.4,0-2.2,0c-0.8,0-1.6,0-2.3,0c0,0.7,0,1.3,0,2H335
			c0-2.1,0.2-4.4,0.7-7.3c0.2-1.2,0.4-2.2,0.7-3.2l0-0.1c0.3-0.9,0.6-2,1-2.9l0-0.1c0.2-0.4,0.6-1.2,1.3-1.3c1-0.1,1.4,1,1.6,1.6
			l0.1,0.2c0.3,0.6,0.5,1.2,0.7,2c0.4,1.3,0.6,2.7,0.7,4c0.3,2.3,0.6,4.7,0.9,6.9L341.2,152.7z M340.8,149.1
			c-0.1-1.1-0.3-2.2-0.4-3.3c-0.2-1.2-0.4-2.6-0.7-3.8c-0.2-0.7-0.4-1.2-0.6-1.8c0-0.1-0.1-0.1-0.1-0.2c0-0.1,0-0.2-0.1-0.3
			c0,0,0,0,0,0.1l0,0.1c-0.4,0.8-0.7,1.7-1,2.7l0,0c-0.3,0.9-0.5,1.9-0.7,3c-0.2,1.3-0.4,2.5-0.5,3.6c0.6,0,1.4,0,2.2,0
			C339.5,149.1,340.2,149.1,340.8,149.1z"/>
		<path class="st24" d="M351,139.7c-0.9-0.2-1.9-0.3-2.8-0.4c0,4.4,0,8.9,0.1,13.3l-1.5,0c-0.1-4.4-0.2-8.9-0.1-13.4
			c-0.6,0-1.3,0.1-1.9,0.2l-0.2-1.5c2.2-0.3,4.5-0.2,6.7,0.3L351,139.7z"/>
	</g>
</g>
</svg>
