<svg id="f0d848c7-f78b-4df5-9696-c32466b46e3a" data-name="Layer 1" xmlns="http://www.w3.org/2000/svg" xmlns:xlink="http://www.w3.org/1999/xlink" viewBox="0 0 373.92 231.56">
  <defs>
    <style>
      .e6b761b5-5df1-449a-a89e-12cdc973f46b, .eabed27e-a998-42cb-bff2-c5507ad1e61d {
        fill: none;
      }

      .ba77dddb-881a-4fe3-9676-e9523c5339f6 {
        fill: url(#b2ecd7a3-0aa4-493f-8a2d-a681c7e4b507);
      }

      .bf1e7eec-2062-49cb-ba24-8087a2af2d24 {
        fill: #b3b3b3;
      }

      .a3cf1b3b-da9d-4d7a-ae89-2b09950cf742 {
        fill: url(#f28f44ed-f71a-43f1-8c54-526db55b35f6);
      }

      .ecd3fe95-3935-4830-b851-b4a2bf84873f {
        fill: url(#e7d64ec1-43a9-4e78-b324-4c17d5bc6c74);
      }

      .b1e665d1-dc45-4b16-b83d-8f18d4f79561 {
        fill: #fff;
      }

      .b7090f72-b4b5-4f07-bb56-e08c92ccd68e {
        fill: url(#b6176748-4ecd-4689-aeab-56ddea99f06d);
      }

      .bb3397aa-8599-46ab-8b42-3265b45b3bc2 {
        fill: url(#fb82c2a2-20b3-477a-a08c-fb7f41afd1ff);
      }

      .b4f82f34-e258-41db-8b26-04756709e499 {
        fill: url(#bd399d45-c29c-49da-9e68-62b6e913c0d9);
      }

      .a4034030-abf6-4061-90e4-f1cbf0bb8076 {
        fill: url(#a35ba333-8f9f-401e-a8ac-b83fd8bebcd0);
      }

      .bd8ac66d-b9e1-464d-97e5-675cd7bcd95d {
        fill: url(#b496cd71-b9bc-4c7c-a765-c1b8c5e122fa);
      }

      .b5423a52-3789-45da-b72b-a5694f5c766f {
        fill: url(#e1b61a00-0dcc-45fd-99ab-fddee18ce819);
      }

      .a31ce416-9e92-4797-971c-bfafffb85a26, .a92619fa-d51c-4103-b2c6-d868154836de, .ac6625a5-b047-47d2-9495-550a22dd5f33, .af00eb1a-d14d-4a57-a424-d8b757fa08b0, .b96cd99d-178a-4404-ad4a-a224a3b8b892, .ba08a946-d098-40a4-82a7-d5d56265a209, .ba877b87-ac5c-4203-981c-e7431102cae5, .e6b761b5-5df1-449a-a89e-12cdc973f46b, .e6c71062-405b-41f9-b047-b761b85eb098, .e87679fd-5bf3-4a8f-b2b1-5188101693d2, .f382bcc3-3bb1-4b13-bf33-2278f931a309, .f3e597c5-b245-4865-8567-95d234974de1, .faeffed6-3b09-47f6-8ffb-5074e898ec51 {
        stroke: #ebd065;
        stroke-miterlimit: 10;
        stroke-width: 2px;
      }

      .faeffed6-3b09-47f6-8ffb-5074e898ec51 {
        fill: url(#a92fad4b-c7ab-48d7-bd3a-03a4de9f0d60);
      }

      .ad01e7e7-c559-49bb-91bd-ec269dc9dfcc {
        clip-path: url(#a98226df-ad14-47eb-a87e-c7ab93d51590);
      }

      .b3e0b82a-8d49-4dc7-b0e6-cae1f99ec507 {
        clip-path: url(#b56d20de-d7b5-429a-88d5-64fb126e86ba);
      }

      .e774a99e-4869-4fe6-a5a1-1498de1d46a8 {
        clip-path: url(#b08bc253-8643-464b-afde-bc58bdd64806);
      }

      .ba877b87-ac5c-4203-981c-e7431102cae5 {
        fill: url(#b4b4be9c-8efd-496b-a266-de5eb6124310);
      }

      .b96cd99d-178a-4404-ad4a-a224a3b8b892 {
        fill: url(#bd8bad4a-25c8-469f-bd4a-7e8081414d83);
      }

      .a92619fa-d51c-4103-b2c6-d868154836de {
        fill: url(#e03f97bf-2328-4894-9b32-423ea26aa4f4);
      }

      .e15829a9-cb7a-4f29-af1c-206288aa03aa {
        clip-path: url(#bb3bc60d-04a2-4b02-87ae-8f999861f61f);
      }

      .a1129b90-6cab-4381-b37e-71f0950a9c83 {
        clip-path: url(#b5b7eb97-e36d-4de2-b757-549ac10369da);
      }

      .a0eb9cfa-a0ae-4222-996a-686a1b7f8266 {
        clip-path: url(#be26507b-a34a-459e-b86a-1eeb9e8feeb7);
      }

      .a31ce416-9e92-4797-971c-bfafffb85a26 {
        fill: url(#f826901b-9896-4c30-9d10-d09fe891ce2e);
      }

      .ac6625a5-b047-47d2-9495-550a22dd5f33 {
        fill: url(#a6ca7136-c94e-421a-8232-815d98297d03);
      }

      .ba08a946-d098-40a4-82a7-d5d56265a209 {
        fill: url(#f0220790-bfb6-4412-9067-ae08725f5614);
      }

      .fcb73256-d4ca-4ffa-a3d8-971e42267467 {
        clip-path: url(#a1be94b2-cda7-4929-adcf-d64bf0819018);
      }

      .a84954de-a28f-40e0-bcbd-6c760d97549b {
        clip-path: url(#b090d2e5-fb1d-45b7-b05d-c3d8e6ad8ed3);
      }

      .ac2dfb74-0b03-4069-8450-4662afa65544 {
        clip-path: url(#e2f53a15-e27c-4e54-aae1-7d2e977f33ab);
      }

      .f3e597c5-b245-4865-8567-95d234974de1 {
        fill: url(#f6685966-d4b7-481e-b156-e4bb09763c0b);
      }

      .af00eb1a-d14d-4a57-a424-d8b757fa08b0 {
        fill: url(#b4090031-ebae-4cd0-bbae-0b6033d13e1e);
      }

      .f382bcc3-3bb1-4b13-bf33-2278f931a309 {
        fill: url(#b2cd7945-d453-4337-86f5-93cb47ce2de7);
      }

      .ae606123-a9aa-4ea6-8b88-6da907ae8a2e {
        clip-path: url(#b5783d88-78fa-46c1-9db1-eb0e0695759d);
      }

      .e23d9cf4-1c32-4ced-926b-1c51efa5239f {
        clip-path: url(#b6b82a18-3f0e-4200-9b64-1d64a60b0a96);
      }

      .fe5e97e0-5422-418f-87bf-a26240eb0eef {
        clip-path: url(#bcb2b0c7-869a-4dcf-82f0-0b26aebc2088);
      }

      .e87679fd-5bf3-4a8f-b2b1-5188101693d2 {
        fill: url(#ab2f674b-048e-40ce-8462-95d2b7a1888a);
      }

      .e6c71062-405b-41f9-b047-b761b85eb098 {
        fill: url(#b64d9b17-f2be-4b8b-a1de-14fe422ccd14);
      }
    </style>
    <linearGradient id="b2ecd7a3-0aa4-493f-8a2d-a681c7e4b507" x1="7234.85" y1="7069.58" x2="7376.64" y2="7069.58" gradientUnits="userSpaceOnUse">
      <stop offset="0" stop-color="#0071bc"/>
      <stop offset="0.01" stop-color="#0084b2"/>
      <stop offset="0.03" stop-color="#0095a8"/>
      <stop offset="0.06" stop-color="#00a0a2"/>
      <stop offset="0.09" stop-color="#00a79e"/>
      <stop offset="0.19" stop-color="#00a99d"/>
      <stop offset="0.29" stop-color="#0093a9"/>
      <stop offset="0.42" stop-color="#0071bc"/>
      <stop offset="0.45" stop-color="#007cb6"/>
      <stop offset="0.5" stop-color="#0090ab"/>
      <stop offset="0.56" stop-color="#009ea3"/>
      <stop offset="0.63" stop-color="#00a79e"/>
      <stop offset="0.76" stop-color="#00a99d"/>
      <stop offset="0.82" stop-color="#00a59f"/>
      <stop offset="0.89" stop-color="#009aa5"/>
      <stop offset="0.95" stop-color="#0086b0"/>
      <stop offset="1" stop-color="#0071bc"/>
    </linearGradient>
    <linearGradient id="f28f44ed-f71a-43f1-8c54-526db55b35f6" x1="174.51" y1="137.04" x2="190.85" y2="137.04" gradientUnits="userSpaceOnUse">
      <stop offset="0"/>
      <stop offset="0.22" stop-color="gray"/>
      <stop offset="0.6" stop-color="#b3b3b3"/>
      <stop offset="1" stop-color="#333"/>
    </linearGradient>
    <linearGradient id="e7d64ec1-43a9-4e78-b324-4c17d5bc6c74" x1="174.73" y1="140.7" x2="191.06" y2="140.7" xlink:href="#f28f44ed-f71a-43f1-8c54-526db55b35f6"/>
    <radialGradient id="b6176748-4ecd-4689-aeab-56ddea99f06d" cx="264.67" cy="182.41" r="45.77" gradientUnits="userSpaceOnUse">
      <stop offset="0" stop-color="#999"/>
      <stop offset="0.02" stop-color="#a9a9a9"/>
      <stop offset="0.05" stop-color="#c4c4c4"/>
      <stop offset="0.1" stop-color="#dadada"/>
      <stop offset="0.14" stop-color="#ebebeb"/>
      <stop offset="0.2" stop-color="#f6f6f6"/>
      <stop offset="0.29" stop-color="#fdfdfd"/>
      <stop offset="0.52" stop-color="#fff"/>
      <stop offset="0.64" stop-color="#e9e9e9"/>
      <stop offset="0.9" stop-color="#b0b0b0"/>
      <stop offset="1" stop-color="#999"/>
    </radialGradient>
    <radialGradient id="fb82c2a2-20b3-477a-a08c-fb7f41afd1ff" cx="264.67" cy="182.41" r="45.77" gradientUnits="userSpaceOnUse">
      <stop offset="0" stop-color="#999"/>
      <stop offset="0.03" stop-color="#a9a9a9"/>
      <stop offset="0.09" stop-color="#c4c4c4"/>
      <stop offset="0.15" stop-color="#dadada"/>
      <stop offset="0.23" stop-color="#ebebeb"/>
      <stop offset="0.32" stop-color="#f6f6f6"/>
      <stop offset="0.46" stop-color="#fdfdfd"/>
      <stop offset="0.83" stop-color="#fff"/>
      <stop offset="0.87" stop-color="#e9e9e9"/>
      <stop offset="0.97" stop-color="#b0b0b0"/>
      <stop offset="1" stop-color="#999"/>
    </radialGradient>
    <radialGradient id="bd399d45-c29c-49da-9e68-62b6e913c0d9" cx="123.26" cy="174.72" r="39.48" xlink:href="#b6176748-4ecd-4689-aeab-56ddea99f06d"/>
    <radialGradient id="a35ba333-8f9f-401e-a8ac-b83fd8bebcd0" cx="123.26" cy="174.72" r="39.48" xlink:href="#fb82c2a2-20b3-477a-a08c-fb7f41afd1ff"/>
    <radialGradient id="b496cd71-b9bc-4c7c-a765-c1b8c5e122fa" cx="7276.68" cy="7083.32" r="32.61" gradientTransform="translate(-7621.69 -7248.54) scale(1.07 1.04)" xlink:href="#b6176748-4ecd-4689-aeab-56ddea99f06d"/>
    <radialGradient id="e1b61a00-0dcc-45fd-99ab-fddee18ce819" cx="7276.68" cy="7083.32" r="32.61" gradientTransform="translate(-7621.69 -7248.54) scale(1.07 1.04)" xlink:href="#fb82c2a2-20b3-477a-a08c-fb7f41afd1ff"/>
    <radialGradient id="a92fad4b-c7ab-48d7-bd3a-03a4de9f0d60" cx="317.5" cy="128.06" r="51.29" gradientUnits="userSpaceOnUse">
      <stop offset="0" stop-color="#ffc"/>
      <stop offset="1" stop-color="#bc8d4e"/>
    </radialGradient>
    <clipPath id="a98226df-ad14-47eb-a87e-c7ab93d51590" transform="translate(-7123.66 -6998.86)">
      <circle class="eabed27e-a998-42cb-bff2-c5507ad1e61d" cx="7441.16" cy="7126.45" r="51.29"/>
    </clipPath>
    <clipPath id="b56d20de-d7b5-429a-88d5-64fb126e86ba" transform="translate(-7123.66 -6998.86)">
      <rect class="eabed27e-a998-42cb-bff2-c5507ad1e61d" x="7384.87" y="7070.16" width="112.58" height="112.58"/>
    </clipPath>
    <clipPath id="b08bc253-8643-464b-afde-bc58bdd64806" transform="translate(-7123.66 -6998.86)">
      <rect class="eabed27e-a998-42cb-bff2-c5507ad1e61d" x="7384.88" y="7070.15" width="112.56" height="112.6"/>
    </clipPath>
    <radialGradient id="b4b4be9c-8efd-496b-a266-de5eb6124310" cx="317.5" cy="128.06" r="13.34" xlink:href="#a92fad4b-c7ab-48d7-bd3a-03a4de9f0d60"/>
    <linearGradient id="bd8bad4a-25c8-469f-bd4a-7e8081414d83" data-name="Earthtone" x1="314.27" y1="128.06" x2="320.73" y2="128.06" gradientUnits="userSpaceOnUse">
      <stop offset="0" stop-color="#89744c"/>
      <stop offset="0.5" stop-color="#574109"/>
      <stop offset="1" stop-color="#3a2600"/>
    </linearGradient>
    <radialGradient id="e03f97bf-2328-4894-9b32-423ea26aa4f4" cx="255.39" cy="64.84" r="59.18" xlink:href="#a92fad4b-c7ab-48d7-bd3a-03a4de9f0d60"/>
    <clipPath id="bb3bc60d-04a2-4b02-87ae-8f999861f61f" transform="translate(-7123.66 -6998.86)">
      <circle class="eabed27e-a998-42cb-bff2-c5507ad1e61d" cx="7379.05" cy="7063.16" r="59.18"/>
    </clipPath>
    <clipPath id="b5b7eb97-e36d-4de2-b757-549ac10369da" transform="translate(-7123.66 -6998.86)">
      <rect class="eabed27e-a998-42cb-bff2-c5507ad1e61d" x="7314.88" y="6998.98" width="128.35" height="128.35"/>
    </clipPath>
    <clipPath id="be26507b-a34a-459e-b86a-1eeb9e8feeb7" transform="translate(-7123.66 -6998.86)">
      <rect class="eabed27e-a998-42cb-bff2-c5507ad1e61d" x="7314.89" y="6998.97" width="128.37" height="128.37"/>
    </clipPath>
    <radialGradient id="f826901b-9896-4c30-9d10-d09fe891ce2e" cx="255.39" cy="64.84" r="15.39" xlink:href="#a92fad4b-c7ab-48d7-bd3a-03a4de9f0d60"/>
    <linearGradient id="a6ca7136-c94e-421a-8232-815d98297d03" x1="251.67" y1="64.84" x2="259.12" y2="64.84" xlink:href="#bd8bad4a-25c8-469f-bd4a-7e8081414d83"/>
    <radialGradient id="f0220790-bfb6-4412-9067-ae08725f5614" cx="44.52" cy="158.12" r="39.25" xlink:href="#a92fad4b-c7ab-48d7-bd3a-03a4de9f0d60"/>
    <clipPath id="a1be94b2-cda7-4929-adcf-d64bf0819018" transform="translate(-7123.66 -6998.86)">
      <circle class="eabed27e-a998-42cb-bff2-c5507ad1e61d" cx="7168.18" cy="7156.61" r="39.25"/>
    </clipPath>
    <clipPath id="b090d2e5-fb1d-45b7-b05d-c3d8e6ad8ed3" transform="translate(-7123.66 -6998.86)">
      <rect class="eabed27e-a998-42cb-bff2-c5507ad1e61d" x="7123.93" y="7112.36" width="88.51" height="88.51"/>
    </clipPath>
    <clipPath id="e2f53a15-e27c-4e54-aae1-7d2e977f33ab" transform="translate(-7123.66 -6998.86)">
      <rect class="eabed27e-a998-42cb-bff2-c5507ad1e61d" x="7123.91" y="7112.35" width="88.52" height="88.52"/>
    </clipPath>
    <radialGradient id="f6685966-d4b7-481e-b156-e4bb09763c0b" cx="44.52" cy="158.12" r="10.21" xlink:href="#a92fad4b-c7ab-48d7-bd3a-03a4de9f0d60"/>
    <linearGradient id="b4090031-ebae-4cd0-bbae-0b6033d13e1e" x1="42.05" y1="158.12" x2="47" y2="158.12" xlink:href="#bd8bad4a-25c8-469f-bd4a-7e8081414d83"/>
    <radialGradient id="b2cd7945-d453-4337-86f5-93cb47ce2de7" cx="69.1" cy="68.83" r="58.76" xlink:href="#a92fad4b-c7ab-48d7-bd3a-03a4de9f0d60"/>
    <clipPath id="b5783d88-78fa-46c1-9db1-eb0e0695759d" transform="translate(-7123.66 -6998.86)">
      <circle class="eabed27e-a998-42cb-bff2-c5507ad1e61d" cx="7192.76" cy="7067.14" r="58.76"/>
    </clipPath>
    <clipPath id="b6b82a18-3f0e-4200-9b64-1d64a60b0a96" transform="translate(-7123.66 -6998.86)">
      <rect class="eabed27e-a998-42cb-bff2-c5507ad1e61d" x="7129" y="7003.39" width="127.51" height="127.51"/>
    </clipPath>
    <clipPath id="bcb2b0c7-869a-4dcf-82f0-0b26aebc2088" transform="translate(-7123.66 -6998.86)">
      <rect class="eabed27e-a998-42cb-bff2-c5507ad1e61d" x="7129.01" y="7003.38" width="127.49" height="127.53"/>
    </clipPath>
    <radialGradient id="ab2f674b-048e-40ce-8462-95d2b7a1888a" cx="69.1" cy="68.83" r="15.28" xlink:href="#a92fad4b-c7ab-48d7-bd3a-03a4de9f0d60"/>
    <linearGradient id="b64d9b17-f2be-4b8b-a1de-14fe422ccd14" x1="65.4" y1="68.83" x2="72.79" y2="68.83" xlink:href="#bd8bad4a-25c8-469f-bd4a-7e8081414d83"/>
  </defs>
  <g>
    <g>
      <g class="drumset bass">
        <path class="bass drumset" id="bodybassdrum" d="M7234.85,7015.68s26.9-5.2,36.07-6.07c16.1-1.54,48.76-1.19,64.91,0,10.35.76,40.81,6.07,40.81,6.07v110.6s-28.27,3.29-37.77,3.76c-14.4.72-43.31.7-57.7,0-11.63-.56-46.32-3.76-46.32-3.76Z" transform="translate(-7123.66 -6998.86)"/>
        <g>
          <path d="M7232.1,7025.94s7.87-5.27,28.52-9.26c18.84-3.64,22.17-3.64,46.42-3.64,22.06,0,46.73,2.65,57.12,5.11,3.58.84,14.12,6,14.38,6.39.85,1.37,1.13,2.7.11,3.22s-1.33-.48-5.62-2.64c-2.42-1.22-5.61-2.06-8.12-3.14-7.29-3.15-42.15-5.62-57.88-5.62-14.67,0-26.12-.5-43.91,3.13-12.42,2.54-19.57,5.21-23.32,6.79-1.6.67-4.89,3.55-6,3.14C7232.46,7029,7231.94,7027.06,7232.1,7025.94Z" transform="translate(-7123.66 -6998.86)"/>
          <polygon class="bf1e7eec-2062-49cb-ba24-8087a2af2d24" points="205.89 8.54 213.21 9.03 212.5 43.65 208.9 43.25 209.75 18.43 206.66 14.3 205.85 9.04 205.89 8.54"/>
          <polygon class="bf1e7eec-2062-49cb-ba24-8087a2af2d24" points="150.94 8.91 143.65 9.52 145.37 44.13 148.96 43.66 147.38 18.86 150.35 14.68 151 9.4 150.94 8.91"/>
          <polygon class="bf1e7eec-2062-49cb-ba24-8087a2af2d24" points="247.56 14.5 254.86 15.1 253.5 49.72 249.91 49.26 251.23 24.45 248.21 20.27 247.51 14.99 247.56 14.5"/>
          <polygon class="bf1e7eec-2062-49cb-ba24-8087a2af2d24" points="116.15 15.86 108.85 16.47 110.23 51.09 113.82 50.62 112.49 25.81 115.5 21.63 116.2 16.36 116.15 15.86"/>
        </g>
        <g>
          <path d="M7233.09,7114.19s7.87,3.55,28.52,6.24c18.84,2.45,22.17,2.45,46.42,2.45,22.07,0,46.73-1.78,57.12-3.44a107.88,107.88,0,0,0,14.39-4.3c.84-.93,1.12-1.82.1-2.17s-1.33.32-5.62,1.78c-2.41.82-5.61,1.39-8.12,2.11-7.28,2.12-42.15,3.78-57.87,3.78-14.67,0-26.12.35-43.92-2.1a169.5,169.5,0,0,1-23.32-4.57c-1.59-.45-4.89-2.4-6-2.12A2.15,2.15,0,0,0,7233.09,7114.19Z" transform="translate(-7123.66 -6998.86)"/>
          <polygon class="bf1e7eec-2062-49cb-ba24-8087a2af2d24" points="206.89 132.66 214.2 132.18 213.49 97.55 209.89 97.95 210.74 122.78 207.65 126.91 206.84 132.17 206.89 132.66"/>
          <polygon class="bf1e7eec-2062-49cb-ba24-8087a2af2d24" points="151.94 132.29 144.64 131.69 146.36 97.08 149.95 97.54 148.37 122.34 151.34 126.53 151.99 131.8 151.94 132.29"/>
          <polygon class="bf1e7eec-2062-49cb-ba24-8087a2af2d24" points="248.55 128.71 255.85 128.1 254.49 93.48 250.9 93.95 252.22 118.75 249.21 122.94 248.5 128.21 248.55 128.71"/>
          <polygon class="bf1e7eec-2062-49cb-ba24-8087a2af2d24" points="117.14 129.34 109.84 128.74 111.22 94.12 114.82 94.58 113.48 119.39 116.49 123.57 117.2 128.85 117.14 129.34"/>
        </g>
      </g>
      <g id="basspedal">
        <rect x="175.96" y="180.19" width="14.64" height="16.05"/>
        <path d="M7314.26,7167.6v6.47l-14.64.07,1.72-11.86.31-5.2-2-3.62-.78-5.78v-8.12l.78-4.89,2.81-3.9h7.47l3,3.9,1.4,9.4v6.36l-1.48,5.06a11.53,11.53,0,0,0,0,6.07c.18.61.51,1.47.88,2.95A29.17,29.17,0,0,1,7314.26,7167.6Z" transform="translate(-7123.66 -6998.86)"/>
        <rect x="175.96" y="174.41" width="2.96" height="5.78"/>
        <polygon points="188.07 180.99 188.07 175.21 190.6 174.97 190.6 181.48 188.07 180.99"/>
      </g>
      <g id="bassmallet" data-key="81">
        <rect class="a3cf1b3b-da9d-4d7a-ae89-2b09950cf742" x="174.51" y="131.91" width="16.33" height="10.27"/>
        <rect class="ecd3fe95-3935-4830-b851-b4a2bf84873f" x="174.73" y="135.56" width="16.33" height="10.27"/>
      </g>
    </g>
    <g class="cymbal" id="floortom">
      <polygon points="280.64 133.26 248.7 133.26 222.86 152.03 212.99 182.41 222.86 212.79 248.7 231.56 280.64 231.56 306.48 212.79 316.35 182.41 306.48 152.03 280.64 133.26"/>
      <circle class="b1e665d1-dc45-4b16-b83d-8f18d4f79561" cx="264.67" cy="182.41" r="45.77"/>
      <g data-key="76">
        <circle class="b7090f72-b4b5-4f07-bb56-e08c92ccd68e" cx="264.67" cy="182.41" r="45.77"/>
        <circle class="bb3397aa-8599-46ab-8b42-3265b45b3bc2" cx="264.67" cy="182.41" r="45.77"/>
      </g>
    </g>
    <g class="drum" id="snare">
      <polygon points="137.03 132.33 109.49 132.33 87.2 148.52 78.69 174.72 87.2 200.91 109.49 217.1 137.03 217.1 159.32 200.91 167.83 174.72 159.32 148.52 137.03 132.33"/>
      <circle class="b1e665d1-dc45-4b16-b83d-8f18d4f79561" cx="123.26" cy="174.72" r="39.48"/>
      <g data-keys="74">
        <circle class="b4f82f34-e258-41db-8b26-04756709e499" cx="123.26" cy="174.72" r="39.48"/>
        <circle class="a4034030-abf6-4061-90e4-f1cbf0bb8076" cx="123.26" cy="174.72" r="39.48"/>
      </g>
    </g>
    <g class="drum" id="hightom">
      <polygon points="162.67 49.44 138.36 49.44 118.7 63.29 111.19 85.7 118.7 108.11 138.36 121.96 162.67 121.96 182.33 108.11 189.84 85.7 182.33 63.29 162.67 49.44"/>
      <ellipse class="b1e665d1-dc45-4b16-b83d-8f18d4f79561" cx="150.52" cy="85.7" rx="34.83" ry="33.77"/>
      <g data-key="76">
        <ellipse class="bd8ac66d-b9e1-464d-97e5-675cd7bcd95d" cx="150.52" cy="85.7" rx="34.83" ry="33.77"/>
        <ellipse class="b5423a52-3789-45da-b72b-a5694f5c766f" cx="150.52" cy="85.7" rx="34.83" ry="33.77"/>
      </g>
    </g>
    <g>
      <circle class="faeffed6-3b09-47f6-8ffb-5074e898ec51" cx="317.5" cy="128.06" r="51.29"/>
      <g>
        <g>
          <g class="ad01e7e7-c559-49bb-91bd-ec269dc9dfcc">
            <g class="b3e0b82a-8d49-4dc7-b0e6-cae1f99ec507">
            </g>
          </g>
          <circle class="e6b761b5-5df1-449a-a89e-12cdc973f46b" cx="317.5" cy="127.59" r="51.29"/>
        </g>
        <g>
          <g class="ad01e7e7-c559-49bb-91bd-ec269dc9dfcc">
            <g class="e774a99e-4869-4fe6-a5a1-1498de1d46a8">
            </g>
          </g>
          <circle class="e6b761b5-5df1-449a-a89e-12cdc973f46b" cx="317.5" cy="127.59" r="51.29"/>
        </g>
      </g>
      <circle class="ba877b87-ac5c-4203-981c-e7431102cae5" cx="317.5" cy="128.06" r="13.34"/>
      <circle class="b96cd99d-178a-4404-ad4a-a224a3b8b892" cx="317.5" cy="128.06" r="3.23"/>
    </g>
    <g>
      <circle class="a92619fa-d51c-4103-b2c6-d868154836de" cx="255.39" cy="64.84" r="59.18"/>
      <g>
        <g>
          <circle class="e6b761b5-5df1-449a-a89e-12cdc973f46b" cx="255.39" cy="64.3" r="59.18"/>
        </g>
        <g>
          <g class="e15829a9-cb7a-4f29-af1c-206288aa03aa">
            <g class="a0eb9cfa-a0ae-4222-996a-686a1b7f8266">
            </g>
          </g>
          <circle class="e6b761b5-5df1-449a-a89e-12cdc973f46b" cx="255.39" cy="64.3" r="59.18"/>
        </g>
      </g>
      <circle class="a31ce416-9e92-4797-971c-bfafffb85a26" cx="255.39" cy="64.84" r="15.39"/>
      <circle class="ac6625a5-b047-47d2-9495-550a22dd5f33" cx="255.39" cy="64.84" r="3.73"/>
    </g>
    <g>
      <g>
        <rect x="7197.6" y="7205.13" width="13.59" height="16.05" transform="translate(-9975.49 -1460.58) rotate(-35.58)"/>
        <path d="M7198.59,7193.35l3.76,5.26-11,8-5.6-10.57-2.8-4.4-3.63-1.85-4-4.28-4.73-6.61-2.25-4.39-.16-4.69,5.65-4,4.5,1.58,6.53,6.88,3.7,5.18,1.83,4.91a12.3,12.3,0,0,0,3.53,4.94c.49.4,1.24.92,2.37,1.92S7198.09,7192.81,7198.59,7193.35Z" transform="translate(-7123.66 -6998.86)"/>
        <rect x="7192.26" y="7204.53" width="2.75" height="5.78" transform="translate(-9974.17 -1467.91) rotate(-35.58)"/>
        <polygon points="80.15 205.82 76.78 201.12 78.56 199.56 82.34 204.85 80.15 205.82"/>
      </g>
      <circle class="ba08a946-d098-40a4-82a7-d5d56265a209" cx="44.52" cy="158.12" r="39.25"/>
      <g>
        <g>
          <g class="fcb73256-d4ca-4ffa-a3d8-971e42267467">
            <g class="a84954de-a28f-40e0-bcbd-6c760d97549b">
            </g>
          </g>
          <circle class="e6b761b5-5df1-449a-a89e-12cdc973f46b" cx="44.52" cy="157.75" r="39.25"/>
        </g>
        <g>
          <g class="fcb73256-d4ca-4ffa-a3d8-971e42267467">
            <g class="ac2dfb74-0b03-4069-8450-4662afa65544">
            </g>
          </g>
          <circle class="e6b761b5-5df1-449a-a89e-12cdc973f46b" cx="44.52" cy="157.75" r="39.25"/>
        </g>
      </g>
      <circle class="f3e597c5-b245-4865-8567-95d234974de1" cx="44.52" cy="158.12" r="10.21"/>
      <circle class="af00eb1a-d14d-4a57-a424-d8b757fa08b0" cx="44.52" cy="158.12" r="2.47"/>
    </g>
    <g>
      <circle class="f382bcc3-3bb1-4b13-bf33-2278f931a309" cx="69.1" cy="68.83" r="58.76"/>
      <g>
        <g>
          <g class="ae606123-a9aa-4ea6-8b88-6da907ae8a2e">
            <g class="e23d9cf4-1c32-4ced-926b-1c51efa5239f">
            </g>
          </g>
          <circle class="e6b761b5-5df1-449a-a89e-12cdc973f46b" cx="69.1" cy="68.28" r="58.76"/>
        </g>
        <g>
          <g class="ae606123-a9aa-4ea6-8b88-6da907ae8a2e">
            <g class="fe5e97e0-5422-418f-87bf-a26240eb0eef">
            </g>
          </g>
          <circle class="e6b761b5-5df1-449a-a89e-12cdc973f46b" cx="69.1" cy="68.28" r="58.76"/>
        </g>
      </g>
      <circle class="e87679fd-5bf3-4a8f-b2b1-5188101693d2" cx="69.1" cy="68.83" r="15.28"/>
      <circle class="e6c71062-405b-41f9-b047-b761b85eb098" cx="69.1" cy="68.83" r="3.7"/>
    </g>
  </g>
</svg>
